<svg width="64" height="60" viewBox="0 0 64 60" fill="none" xmlns="http://www.w3.org/2000/svg">
<path d="M63.5625 32.3149L58.3125 27.0649C58.1042 26.8566 57.875 26.7524 57.625 26.7524C57.375 26.7524 57.1667 26.8566 57 27.0649C56.7917 27.2316 56.6875 27.4504 56.6875 27.7212C56.6875 27.992 56.7917 28.2108 57 28.3774L62 33.3774L60 35.3774L48.9375 24.3149C49.1458 24.1899 49.3333 24.0441 49.5 23.8774C49.6667 23.7108 49.8333 23.5441 50 23.3774C50.1667 23.2108 50.3333 23.0441 50.5 22.8774C50.6667 22.7108 50.8125 22.5233 50.9375 22.3149L53.875 25.2524C54.0417 25.4608 54.2604 25.5649 54.5312 25.5649C54.8021 25.5649 55.0208 25.4608 55.1875 25.2524C55.3542 25.0858 55.4375 24.867 55.4375 24.5962C55.4375 24.3254 55.3542 24.1066 55.1875 23.9399L52.0625 20.8149C53.6042 18.1899 54.2083 15.3254 53.875 12.2212C53.5417 9.11702 52.25 6.43994 50 4.18994C48.7083 2.93994 47.2396 1.97119 45.5938 1.28369C43.9479 0.596191 42.2292 0.252441 40.4375 0.252441C38.6042 0.252441 36.8646 0.596191 35.2188 1.28369C33.5729 1.97119 32.1042 2.93994 30.8125 4.18994C29.4792 5.52327 28.5 7.02327 27.875 8.68994C27.2083 10.3566 26.875 12.0545 26.875 13.7837C26.875 15.5129 27.2083 17.2108 27.875 18.8774C28.5 20.5441 29.4792 22.0441 30.8125 23.3774C32.1458 24.7108 33.6458 25.7108 35.3125 26.3774C36.9792 27.0441 38.6875 27.3774 40.4375 27.3774C41.6458 27.3774 42.8438 27.2108 44.0312 26.8774C45.2188 26.5441 46.3333 26.0649 47.375 25.4399L58.875 36.9399C59.0417 37.1066 59.2188 37.2212 59.4062 37.2837C59.5938 37.3462 59.7917 37.3774 60 37.3774C60.2083 37.3774 60.4062 37.3462 60.5938 37.2837C60.7812 37.2212 60.9583 37.1066 61.125 36.9399L63.5625 34.5024C63.8542 34.2108 64 33.8462 64 33.4087C64 32.9712 63.8542 32.6066 63.5625 32.3149ZM40.4375 25.5024C38.9375 25.5024 37.4688 25.2108 36.0312 24.6274C34.5938 24.0441 33.2917 23.1899 32.125 22.0649C29.875 19.7733 28.75 17.0129 28.75 13.7837C28.75 10.5545 29.875 7.81494 32.125 5.56494C33.25 4.43994 34.5208 3.58577 35.9375 3.00244C37.3542 2.41911 38.8542 2.12744 40.4375 2.12744C41.9792 2.12744 43.4583 2.41911 44.875 3.00244C46.2917 3.58577 47.5625 4.43994 48.6875 5.56494C50.9375 7.81494 52.0625 10.5545 52.0625 13.7837C52.0625 17.0129 50.9375 19.7733 48.6875 22.0649C47.5208 23.1899 46.2188 24.0441 44.7812 24.6274C43.3438 25.2108 41.8958 25.5024 40.4375 25.5024ZM47.4375 6.81494C46.4792 5.85661 45.3958 5.12744 44.1875 4.62744C42.9792 4.12744 41.7292 3.87744 40.4375 3.87744C39.1042 3.87744 37.8333 4.12744 36.625 4.62744C35.4167 5.12744 34.3333 5.85661 33.375 6.81494C32.4583 7.73161 31.75 8.79411 31.25 10.0024C30.75 11.2108 30.5 12.4816 30.5 13.8149C30.5 15.1483 30.75 16.4087 31.25 17.5962C31.75 18.7837 32.4583 19.8566 33.375 20.8149C34.375 21.7733 35.4792 22.492 36.6875 22.9712C37.8958 23.4504 39.1458 23.6899 40.4375 23.6899C41.6875 23.6899 42.9271 23.4504 44.1562 22.9712C45.3854 22.492 46.4792 21.7733 47.4375 20.8149C48.3542 19.8566 49.0625 18.7837 49.5625 17.5962C50.0625 16.4087 50.3125 15.1483 50.3125 13.8149C50.3125 12.4816 50.0625 11.2108 49.5625 10.0024C49.0625 8.79411 48.3542 7.73161 47.4375 6.81494ZM46.0625 19.5024C45.3125 20.2941 44.4375 20.8774 43.4375 21.2524C42.4375 21.6274 41.4375 21.8149 40.4375 21.8149C39.3958 21.8149 38.375 21.617 37.375 21.2212C36.375 20.8254 35.5 20.2524 34.75 19.5024C33.9583 18.7108 33.3646 17.8358 32.9688 16.8774C32.5729 15.9191 32.375 14.8983 32.375 13.8149C32.375 12.7316 32.5729 11.7004 32.9688 10.7212C33.3646 9.74202 33.9583 8.87744 34.75 8.12744C35.5 7.37744 36.3646 6.79411 37.3438 6.37744C38.3229 5.96077 39.3542 5.75244 40.4375 5.75244C41.4792 5.75244 42.4896 5.96077 43.4688 6.37744C44.4479 6.79411 45.3125 7.37744 46.0625 8.12744C46.8542 8.87744 47.4479 9.74202 47.8438 10.7212C48.2396 11.7004 48.4375 12.7316 48.4375 13.8149C48.4375 14.8983 48.2396 15.9191 47.8438 16.8774C47.4479 17.8358 46.8542 18.7108 46.0625 19.5024ZM51.375 40.7524C51.2083 40.9608 51.1458 41.1899 51.1875 41.4399C51.2292 41.6899 51.3542 41.8983 51.5625 42.0649C51.7708 42.1899 52 42.242 52.25 42.2212C52.5 42.2004 52.7083 42.0858 52.875 41.8774C52.9167 41.8358 52.9479 41.7941 52.9688 41.7524C52.9896 41.7108 53.0208 41.6691 53.0625 41.6274C54.0208 40.2524 54.3646 38.8774 54.0938 37.5024C53.8229 36.1274 53.25 35.0024 52.375 34.1274C51.5 33.2108 50.375 32.617 49 32.3462C47.625 32.0754 46.2292 32.4399 44.8125 33.4399C44.6042 33.6066 44.3854 33.7837 44.1562 33.9712C43.9271 34.1587 43.7083 34.3566 43.5 34.5649C42.2083 35.8149 41.3333 37.3149 40.875 39.0649C40.4167 40.8149 40.3958 42.5649 40.8125 44.3149L38.3125 46.8149L35.875 44.3149C36.2917 42.5649 36.2708 40.8149 35.8125 39.0649C35.3542 37.3149 34.4792 35.8149 33.1875 34.5649C32.9792 34.3566 32.7604 34.1587 32.5312 33.9712C32.3021 33.7837 32.0833 33.6066 31.875 33.4399C31.4167 33.1066 30.9688 32.8566 30.5312 32.6899C30.0938 32.5233 29.6458 32.4191 29.1875 32.3774C28.1875 31.1274 27.0417 30.0545 25.75 29.1587C24.4583 28.2629 23.0625 27.5858 21.5625 27.1274V23.6274C21.5625 23.3774 21.4688 23.1587 21.2812 22.9712C21.0938 22.7837 20.875 22.6899 20.625 22.6899C20.375 22.6899 20.1562 22.7837 19.9688 22.9712C19.7812 23.1587 19.6875 23.3774 19.6875 23.6274V27.3149C19.6875 27.6899 19.7917 28.0129 20 28.2837C20.2083 28.5545 20.4792 28.7316 20.8125 28.8149C21.9375 29.1899 23.0208 29.6899 24.0625 30.3149C25.1042 30.9399 26.0417 31.6899 26.875 32.5649C26.375 32.7316 25.9062 32.9399 25.4688 33.1899C25.0312 33.4399 24.6458 33.7524 24.3125 34.1274C24.1458 34.2524 24 34.3983 23.875 34.5649C23.75 34.7316 23.625 34.9191 23.5 35.1274H7.0625C6.77083 35.1274 6.51042 35.1899 6.28125 35.3149C6.05208 35.4399 5.85417 35.6274 5.6875 35.8774C5.0625 36.8774 4.57292 37.9608 4.21875 39.1274C3.86458 40.2941 3.6875 41.4816 3.6875 42.6899C3.6875 44.4399 4.02083 46.1066 4.6875 47.6899C5.35417 49.2316 6.27083 50.5754 7.4375 51.7212C8.60417 52.867 9.95833 53.7733 11.5 54.4399C13.0417 55.1066 14.6875 55.4399 16.4375 55.4399C19.4792 55.4399 22.1562 54.492 24.4688 52.5962C26.7812 50.7004 28.25 48.3149 28.875 45.4399C29.1667 45.5649 29.4583 45.6587 29.75 45.7212C30.0417 45.7837 30.3333 45.8358 30.625 45.8774C30.3333 47.2108 29.8542 48.492 29.1875 49.7212C28.5208 50.9504 27.6667 52.0649 26.625 53.0649C25.25 54.4399 23.6562 55.492 21.8438 56.2212C20.0312 56.9504 18.1458 57.2941 16.1875 57.2524C14.3125 57.2524 12.5 56.8774 10.75 56.1274C9 55.3774 7.45833 54.3149 6.125 52.9399C4.79167 51.6066 3.75 50.0649 3 48.3149C2.25 46.5649 1.875 44.7524 1.875 42.8774C1.875 41.2524 2.11458 39.7004 2.59375 38.2212C3.07292 36.742 3.77083 35.3566 4.6875 34.0649C5.60417 32.8149 6.69792 31.742 7.96875 30.8462C9.23958 29.9504 10.6042 29.2733 12.0625 28.8149C12.3958 28.7316 12.6667 28.5545 12.875 28.2837C13.0833 28.0129 13.1875 27.6899 13.1875 27.3149V16.6899H19.6875V19.1899C19.6875 19.4399 19.7812 19.6587 19.9688 19.8462C20.1562 20.0337 20.375 20.1274 20.625 20.1274C20.875 20.1274 21.0938 20.0337 21.2812 19.8462C21.4688 19.6587 21.5625 19.4399 21.5625 19.1899V16.6899H22.375C23 16.6899 23.5208 16.4816 23.9375 16.0649C24.3542 15.6483 24.5625 15.1274 24.5625 14.5024V11.9399C24.5625 11.3566 24.3542 10.8462 23.9375 10.4087C23.5208 9.97119 23 9.75244 22.375 9.75244H10.4375C9.85417 9.75244 9.34375 9.97119 8.90625 10.4087C8.46875 10.8462 8.25 11.3566 8.25 11.9399V14.5024C8.25 15.1274 8.46875 15.6483 8.90625 16.0649C9.34375 16.4816 9.85417 16.6899 10.4375 16.6899H11.3125V27.1274C9.6875 27.6274 8.1875 28.3879 6.8125 29.4087C5.4375 30.4295 4.22917 31.6066 3.1875 32.9399C2.14583 34.3983 1.35417 35.9712 0.8125 37.6587C0.270833 39.3462 0 41.0858 0 42.8774C0.0416667 45.0024 0.46875 47.0545 1.28125 49.0337C2.09375 51.0129 3.27083 52.7733 4.8125 54.3149C6.3125 55.8149 8.04167 56.9816 10 57.8149C11.9583 58.6483 14.0208 59.0858 16.1875 59.1274C16.2292 59.1274 16.2708 59.1274 16.3125 59.1274C16.3542 59.1274 16.3958 59.1274 16.4375 59.1274C17.6875 59.1274 18.9062 58.992 20.0938 58.7212C21.2812 58.4504 22.4167 58.0649 23.5 57.5649H52.125C52.375 57.5649 52.5938 57.4712 52.7812 57.2837C52.9688 57.0962 53.0625 56.8774 53.0625 56.6274C53.0625 56.3774 52.9688 56.1587 52.7812 55.9712C52.5938 55.7837 52.375 55.6899 52.125 55.6899H39.25V48.5024L42.125 45.6274C42.5417 45.7524 42.9583 45.8358 43.375 45.8774C43.7917 45.9191 44.2083 45.9399 44.625 45.9399C45.4167 45.9399 46.1875 45.8566 46.9375 45.6899C47.6875 45.5233 48.4167 45.2733 49.125 44.9399C49.375 44.8149 49.5417 44.6274 49.625 44.3774C49.7083 44.1274 49.6875 43.8983 49.5625 43.6899C49.4792 43.4399 49.3125 43.2733 49.0625 43.1899C48.8125 43.1066 48.5625 43.1274 48.3125 43.2524C47.6042 43.5858 46.8646 43.8254 46.0938 43.9712C45.3229 44.117 44.5417 44.1483 43.75 44.0649L48.25 39.5649C48.4167 39.3983 48.5 39.1795 48.5 38.9087C48.5 38.6379 48.4167 38.4191 48.25 38.2524C48.0417 38.0441 47.8125 37.9399 47.5625 37.9399C47.3125 37.9399 47.0833 38.0441 46.875 38.2524L42.4375 42.6899C42.3125 41.4399 42.4583 40.2212 42.875 39.0337C43.2917 37.8462 43.9583 36.7941 44.875 35.8774C45.0417 35.7108 45.2083 35.5545 45.375 35.4087C45.5417 35.2629 45.7292 35.1066 45.9375 34.9399C46.9375 34.2316 47.8958 33.992 48.8125 34.2212C49.7292 34.4504 50.4792 34.8566 51.0625 35.4399C51.6042 35.9816 51.9896 36.7212 52.2188 37.6587C52.4479 38.5962 52.2083 39.5649 51.5 40.5649C51.5 40.5649 51.4896 40.5858 51.4688 40.6274C51.4479 40.6691 51.4167 40.7108 51.375 40.7524ZM10.4375 14.8149C10.3542 14.8149 10.2812 14.7837 10.2188 14.7212C10.1562 14.6587 10.125 14.5858 10.125 14.5024V11.9399C10.125 11.8566 10.1562 11.7837 10.2188 11.7212C10.2812 11.6587 10.3542 11.6274 10.4375 11.6274H22.375C22.4583 11.6274 22.5312 11.6587 22.5938 11.7212C22.6562 11.7837 22.6875 11.8566 22.6875 11.9399V14.5024C22.6875 14.5858 22.6562 14.6587 22.5938 14.7212C22.5312 14.7837 22.4583 14.8149 22.375 14.8149H10.4375ZM7.1875 37.0024H22.6875C22.6042 37.2941 22.5521 37.5962 22.5312 37.9087C22.5104 38.2212 22.5208 38.5441 22.5625 38.8774H6.3125C6.39583 38.5441 6.52083 38.2212 6.6875 37.9087C6.85417 37.5962 7.02083 37.2941 7.1875 37.0024ZM16.4375 53.5649C13.4375 53.5649 10.875 52.5024 8.75 50.3774C6.625 48.2524 5.5625 45.6899 5.5625 42.6899C5.5625 42.3566 5.58333 42.0233 5.625 41.6899C5.66667 41.3566 5.70833 41.0441 5.75 40.7524H23.125C23.2083 40.8774 23.2917 41.0129 23.375 41.1587C23.4583 41.3045 23.5417 41.4608 23.625 41.6274C23.7917 41.8774 23.9688 42.1066 24.1562 42.3149C24.3438 42.5233 24.5417 42.7316 24.75 42.9399C25.125 43.2733 25.5104 43.5962 25.9062 43.9087C26.3021 44.2212 26.7083 44.4816 27.125 44.6899C26.6667 47.2316 25.4375 49.3462 23.4375 51.0337C21.4375 52.7212 19.1042 53.5649 16.4375 53.5649ZM26.0625 41.6274C25.8958 41.4608 25.7396 41.2837 25.5938 41.0962C25.4479 40.9087 25.3125 40.7316 25.1875 40.5649C24.4792 39.5649 24.2396 38.5962 24.4688 37.6587C24.6979 36.7212 25.0833 35.9816 25.625 35.4399C25.9583 35.1066 26.375 34.8149 26.875 34.5649C27.375 34.3149 27.9167 34.1899 28.5 34.1899C28.875 34.1899 29.25 34.2524 29.625 34.3774C30 34.5024 30.375 34.6899 30.75 34.9399C30.9583 35.1066 31.1458 35.2629 31.3125 35.4087C31.4792 35.5545 31.6458 35.7108 31.8125 35.8774C32.7292 36.7941 33.3958 37.8462 33.8125 39.0337C34.2292 40.2212 34.375 41.4399 34.25 42.6899L29.8125 38.2524C29.6042 38.0441 29.375 37.9399 29.125 37.9399C28.875 37.9399 28.6458 38.0441 28.4375 38.2524C28.2708 38.4191 28.1875 38.6379 28.1875 38.9087C28.1875 39.1795 28.2708 39.3983 28.4375 39.5649L32.9375 44.0649C31.6875 44.1899 30.4583 44.0441 29.25 43.6274C28.0417 43.2108 26.9792 42.5441 26.0625 41.6274ZM37.375 55.6899H26.5C26.75 55.4816 27 55.2733 27.25 55.0649C27.5 54.8566 27.7292 54.6483 27.9375 54.4399C29.1458 53.2733 30.1354 51.9608 30.9062 50.5024C31.6771 49.0441 32.2292 47.5233 32.5625 45.9399C32.8958 45.9399 33.2292 45.9087 33.5625 45.8462C33.8958 45.7837 34.2292 45.7108 34.5625 45.6274L37.375 48.5024V55.6899ZM14.1875 45.4399C14.1875 45.6899 14.0938 45.9087 13.9062 46.0962C13.7188 46.2837 13.5 46.3774 13.25 46.3774C13 46.3774 12.7812 46.2837 12.5938 46.0962C12.4062 45.9087 12.3125 45.6899 12.3125 45.4399C12.3125 45.1899 12.4062 44.9712 12.5938 44.7837C12.7812 44.5962 13 44.5024 13.25 44.5024C13.5 44.5024 13.7188 44.5962 13.9062 44.7837C14.0938 44.9712 14.1875 45.1899 14.1875 45.4399ZM18.5625 49.5649C18.5625 49.8149 18.4688 50.0337 18.2812 50.2212C18.0938 50.4087 17.875 50.5024 17.625 50.5024C17.375 50.5024 17.1562 50.4087 16.9688 50.2212C16.7812 50.0337 16.6875 49.8149 16.6875 49.5649C16.6875 49.3149 16.7812 49.0962 16.9688 48.9087C17.1562 48.7212 17.375 48.6274 17.625 48.6274C17.875 48.6274 18.0938 48.7212 18.2812 48.9087C18.4688 49.0962 18.5625 49.3149 18.5625 49.5649ZM20.3125 43.5649C20.3125 43.8149 20.2188 44.0337 20.0312 44.2212C19.8438 44.4087 19.625 44.5024 19.375 44.5024C19.125 44.5024 18.9062 44.4087 18.7188 44.2212C18.5312 44.0337 18.4375 43.8149 18.4375 43.5649C18.4375 43.3149 18.5312 43.0962 18.7188 42.9087C18.9062 42.7212 19.125 42.6274 19.375 42.6274C19.625 42.6274 19.8438 42.7212 20.0312 42.9087C20.2188 43.0962 20.3125 43.3149 20.3125 43.5649Z" fill="#EEC044"/>
</svg>
