<svg width="60" height="61" viewBox="0 0 60 61" fill="none" xmlns="http://www.w3.org/2000/svg">
<path d="M16 58.6899H14.1875C12.9375 58.6899 11.8438 58.2837 10.9062 57.4712C9.96875 56.6587 9.41667 55.6483 9.25 54.4399V54.3774L6.5625 35.5649C6.52083 35.3149 6.40625 35.1066 6.21875 34.9399C6.03125 34.7733 5.8125 34.6899 5.5625 34.6899C5.3125 34.6899 5.08333 34.7837 4.875 34.9712C4.66667 35.1587 4.5625 35.3983 4.5625 35.6899C4.5625 35.7316 4.5625 35.7629 4.5625 35.7837C4.5625 35.8045 4.5625 35.8149 4.5625 35.8149L7.25 54.6899C7.54167 56.3983 8.33333 57.8254 9.625 58.9712C10.9167 60.117 12.4375 60.6899 14.1875 60.6899H16C16.2917 60.6899 16.5312 60.5962 16.7188 60.4087C16.9062 60.2212 17 59.9816 17 59.6899C17 59.3983 16.9062 59.1587 16.7188 58.9712C16.5312 58.7837 16.2917 58.6899 16 58.6899ZM28 48.6899C27.7083 48.6899 27.4688 48.7837 27.2812 48.9712C27.0938 49.1587 27 49.3983 27 49.6899V53.6899C27 54.5233 27.2917 55.2316 27.875 55.8149C28.4583 56.3983 29.1667 56.6899 30 56.6899C30.8333 56.6899 31.5417 56.3983 32.125 55.8149C32.7083 55.2316 33 54.5233 33 53.6899V41.6899C33 40.8566 32.7083 40.1483 32.125 39.5649C31.5417 38.9816 30.8333 38.6899 30 38.6899C29.1667 38.6899 28.4583 38.9816 27.875 39.5649C27.2917 40.1483 27 40.8566 27 41.6899V45.6899C27 45.9816 27.0938 46.2212 27.2812 46.4087C27.4688 46.5962 27.7083 46.6899 28 46.6899C28.2917 46.6899 28.5312 46.5962 28.7188 46.4087C28.9062 46.2212 29 45.9816 29 45.6899V41.6899C29 41.3983 29.0938 41.1587 29.2812 40.9712C29.4688 40.7837 29.7083 40.6899 30 40.6899C30.2917 40.6899 30.5312 40.7837 30.7188 40.9712C30.9062 41.1587 31 41.3983 31 41.6899V53.6899C31 53.9816 30.9062 54.2212 30.7188 54.4087C30.5312 54.5962 30.2917 54.6899 30 54.6899C29.7083 54.6899 29.4688 54.5962 29.2812 54.4087C29.0938 54.2212 29 53.9816 29 53.6899V49.6899C29 49.3983 28.9062 49.1587 28.7188 48.9712C28.5312 48.7837 28.2917 48.6899 28 48.6899ZM14 38.6899C13.1667 38.6899 12.4583 38.9816 11.875 39.5649C11.2917 40.1483 11 40.8566 11 41.6899V53.6899C11 54.5233 11.2917 55.2316 11.875 55.8149C12.4583 56.3983 13.1667 56.6899 14 56.6899C14.8333 56.6899 15.5417 56.3983 16.125 55.8149C16.7083 55.2316 17 54.5233 17 53.6899V41.6899C17 40.8566 16.7083 40.1483 16.125 39.5649C15.5417 38.9816 14.8333 38.6899 14 38.6899ZM15 53.6899C15 53.9816 14.9062 54.2212 14.7188 54.4087C14.5312 54.5962 14.2917 54.6899 14 54.6899C13.7083 54.6899 13.4688 54.5962 13.2812 54.4087C13.0938 54.2212 13 53.9816 13 53.6899V41.6899C13 41.3983 13.0938 41.1587 13.2812 40.9712C13.4688 40.7837 13.7083 40.6899 14 40.6899C14.2917 40.6899 14.5312 40.7837 14.7188 40.9712C14.9062 41.1587 15 41.3983 15 41.6899V53.6899ZM19 41.6899V53.6899C19 54.5233 19.2917 55.2316 19.875 55.8149C20.4583 56.3983 21.1667 56.6899 22 56.6899C22.8333 56.6899 23.5417 56.3983 24.125 55.8149C24.7083 55.2316 25 54.5233 25 53.6899V41.6899C25 40.8566 24.7083 40.1483 24.125 39.5649C23.5417 38.9816 22.8333 38.6899 22 38.6899C21.1667 38.6899 20.4583 38.9816 19.875 39.5649C19.2917 40.1483 19 40.8566 19 41.6899ZM23 41.6899V53.6899C23 53.9816 22.9062 54.2212 22.7188 54.4087C22.5312 54.5962 22.2917 54.6899 22 54.6899C21.7083 54.6899 21.4688 54.5962 21.2812 54.4087C21.0938 54.2212 21 53.9816 21 53.6899V41.6899C21 41.3983 21.0938 41.1587 21.2812 40.9712C21.4688 40.7837 21.7083 40.6899 22 40.6899C22.2917 40.6899 22.5312 40.7837 22.7188 40.9712C22.9062 41.1587 23 41.3983 23 41.6899ZM44 36.6899C44.2917 36.6899 44.5312 36.5962 44.7188 36.4087C44.9062 36.2212 45 35.9816 45 35.6899C45 35.3983 44.9062 35.1587 44.7188 34.9712C44.5312 34.7837 44.2917 34.6899 44 34.6899H37C36.7083 34.6899 36.4688 34.7837 36.2812 34.9712C36.0938 35.1587 36 35.3983 36 35.6899C36 35.9816 36.0938 36.2212 36.2812 36.4087C36.4688 36.5962 36.7083 36.6899 37 36.6899H44ZM23 34.6899H11C10.7083 34.6899 10.4688 34.7837 10.2812 34.9712C10.0938 35.1587 10 35.3983 10 35.6899C10 35.9816 10.0938 36.2212 10.2812 36.4087C10.4688 36.5962 10.7083 36.6899 11 36.6899H23C23.2917 36.6899 23.5312 36.5962 23.7188 36.4087C23.9062 36.2212 24 35.9816 24 35.6899C24 35.3983 23.9062 35.1587 23.7188 34.9712C23.5312 34.7837 23.2917 34.6899 23 34.6899ZM55.9375 41.7524C56.5625 41.2941 57.0625 40.7108 57.4375 40.0024C57.8125 39.2941 58 38.5233 58 37.6899C58 37.3983 57.9062 37.1587 57.7188 36.9712C57.5312 36.7837 57.2917 36.6899 57 36.6899H55.3125L55.875 32.6899H57C57.8333 32.6899 58.5417 32.3983 59.125 31.8149C59.7083 31.2316 60 30.5233 60 29.6899C60 28.8566 59.7083 28.1483 59.125 27.5649C58.5417 26.9816 57.8333 26.6899 57 26.6899H50.75L51.625 24.7524C51.9583 25.0024 52.3229 25.2004 52.7188 25.3462C53.1146 25.492 53.5417 25.5649 54 25.5649C54.9167 25.5649 55.7292 25.2941 56.4375 24.7524C57.1458 24.2108 57.625 23.5024 57.875 22.6274C57.9167 22.4608 57.9479 22.2941 57.9688 22.1274C57.9896 21.9608 58 21.7941 58 21.6274C58 21.5858 58 21.5545 58 21.5337C58 21.5129 58 21.4816 58 21.4399C58.5833 21.1066 59.0625 20.6274 59.4375 20.0024C59.8125 19.3774 60 18.7108 60 18.0024C60 17.4191 59.8854 16.867 59.6562 16.3462C59.4271 15.8254 59.1042 15.3774 58.6875 15.0024C58.7708 14.8358 58.8646 14.6379 58.9688 14.4087C59.0729 14.1795 59.1458 13.9399 59.1875 13.6899H59.25C59.2917 13.4399 59.3333 13.1795 59.375 12.9087C59.4167 12.6379 59.4375 12.3774 59.4375 12.1274C59.4375 11.2941 59.2812 10.5129 58.9688 9.78369C58.6562 9.05452 58.2292 8.41911 57.6875 7.87744C57.6042 7.79411 57.5 7.73161 57.375 7.68994C57.25 7.64827 57.125 7.62744 57 7.62744C56.7083 7.62744 56.4688 7.72119 56.2812 7.90869C56.0938 8.09619 56 8.33577 56 8.62744C56 8.75244 56.0208 8.87744 56.0625 9.00244C56.1042 9.12744 56.1875 9.23161 56.3125 9.31494C56.6458 9.68994 56.9167 10.117 57.125 10.5962C57.3333 11.0754 57.4375 11.5858 57.4375 12.1274C57.4375 12.9608 57.1979 13.7212 56.7188 14.4087C56.2396 15.0962 55.6042 15.5649 54.8125 15.8149V15.8774C54.6458 15.9191 54.5 16.0233 54.375 16.1899C54.25 16.3566 54.1875 16.5441 54.1875 16.7524C54.1875 16.8774 54.1771 17.0024 54.1562 17.1274C54.1354 17.2524 54.1042 17.3774 54.0625 17.5024V17.4399C53.8958 18.1066 53.5417 18.6483 53 19.0649C52.4583 19.4816 51.8542 19.6899 51.1875 19.6899C50.4792 19.6899 49.8646 19.4816 49.3438 19.0649C48.8229 18.6483 48.4792 18.1274 48.3125 17.5024C48.3125 17.5024 48.3125 17.4816 48.3125 17.4399C48.2708 17.3566 48.2396 17.242 48.2188 17.0962C48.1979 16.9504 48.1875 16.8149 48.1875 16.6899C48.1875 16.1483 48.3229 15.6483 48.5938 15.1899C48.8646 14.7316 49.2083 14.3566 49.625 14.0649H49.6875C49.8125 13.9816 49.9271 13.867 50.0312 13.7212C50.1354 13.5754 50.1875 13.3983 50.1875 13.1899C50.1875 12.9399 50.0833 12.7108 49.875 12.5024C49.6667 12.2941 49.4375 12.1899 49.1875 12.1899C49.0625 12.1899 48.9583 12.2108 48.875 12.2524C48.7917 12.2941 48.7292 12.3358 48.6875 12.3774C47.9375 12.7941 47.3333 13.3879 46.875 14.1587C46.4167 14.9295 46.1875 15.7733 46.1875 16.6899C46.1875 16.7316 46.1875 16.7941 46.1875 16.8774C46.1875 16.9608 46.1875 17.0441 46.1875 17.1274V17.0649C46.1042 17.1066 46.0104 17.1274 45.9062 17.1274C45.8021 17.1274 45.6875 17.1274 45.5625 17.1274C45.4375 17.1274 45.3125 17.1274 45.1875 17.1274C45.0625 17.1274 44.9375 17.1066 44.8125 17.0649H44.875C44.4167 16.9399 44.0312 16.742 43.7188 16.4712C43.4062 16.2004 43.1458 15.8774 42.9375 15.5024C42.9375 15.4608 42.9375 15.4399 42.9375 15.4399C42.8542 15.2316 42.7812 15.0233 42.7188 14.8149C42.6562 14.6066 42.625 14.3774 42.625 14.1274C42.625 14.1274 42.625 14.1066 42.625 14.0649C42.625 13.8149 42.5312 13.5858 42.3438 13.3774C42.1562 13.1691 41.9167 13.0649 41.625 13.0649C41.375 13.0649 41.1458 13.1587 40.9375 13.3462C40.7292 13.5337 40.625 13.7733 40.625 14.0649C40.625 14.0649 40.625 14.0754 40.625 14.0962C40.625 14.117 40.625 14.1274 40.625 14.1274C40.625 14.3774 40.6458 14.6066 40.6875 14.8149C40.7292 15.0233 40.7708 15.2316 40.8125 15.4399C40.6458 15.4816 40.4792 15.5233 40.3125 15.5649C40.1458 15.6066 39.9792 15.6274 39.8125 15.6274C39.6875 15.6274 39.5625 15.617 39.4375 15.5962C39.3125 15.5754 39.1875 15.5441 39.0625 15.5024C38.7292 15.4191 38.4375 15.2941 38.1875 15.1274C37.9375 14.9608 37.7083 14.7524 37.5 14.5024V14.4399C37.2917 14.1899 37.125 13.9087 37 13.5962C36.875 13.2837 36.8125 12.9608 36.8125 12.6274C36.8125 11.9191 37.0312 11.2941 37.4688 10.7524C37.9062 10.2108 38.4375 9.85661 39.0625 9.68994H39.125C39.2917 9.64827 39.4479 9.55452 39.5938 9.40869C39.7396 9.26286 39.8125 9.08577 39.8125 8.87744L39.875 8.68994C39.875 8.64827 39.875 8.60661 39.875 8.56494C39.875 8.52327 39.875 8.50244 39.875 8.50244C40.0833 7.79411 40.4375 7.18994 40.9375 6.68994C41.4375 6.18994 42.0417 5.85661 42.75 5.68994C42.75 5.81494 42.7396 5.97119 42.7188 6.15869C42.6979 6.34619 42.6875 6.52327 42.6875 6.68994C42.6875 7.23161 42.7604 7.76286 42.9062 8.28369C43.0521 8.80452 43.25 9.27327 43.5 9.68994C43.5833 9.85661 43.6979 9.98161 43.8438 10.0649C43.9896 10.1483 44.1458 10.1899 44.3125 10.1899C44.6042 10.1899 44.8438 10.0962 45.0312 9.90869C45.2188 9.72119 45.3125 9.48161 45.3125 9.18994C45.3125 9.10661 45.3021 9.02327 45.2812 8.93994C45.2604 8.85661 45.2292 8.77327 45.1875 8.68994C45.0208 8.39827 44.8958 8.08577 44.8125 7.75244C44.7292 7.41911 44.6875 7.06494 44.6875 6.68994C44.6875 6.39827 44.7188 6.10661 44.7812 5.81494C44.8438 5.52327 44.9375 5.23161 45.0625 4.93994C45.3958 4.27327 45.8854 3.73161 46.5312 3.31494C47.1771 2.89827 47.8958 2.68994 48.6875 2.68994C49.7708 2.68994 50.7083 3.07536 51.5 3.84619C52.2917 4.61702 52.6875 5.56494 52.6875 6.68994C52.6875 6.73161 52.6771 6.78369 52.6562 6.84619C52.6354 6.90869 52.625 6.98161 52.625 7.06494V7.00244C52.625 7.04411 52.625 7.06494 52.625 7.06494C52.625 7.35661 52.7292 7.59619 52.9375 7.78369C53.1458 7.97119 53.375 8.06494 53.625 8.06494C53.875 8.06494 54.0938 7.98161 54.2812 7.81494C54.4688 7.64827 54.5833 7.43994 54.625 7.18994C54.625 7.10661 54.6354 7.02327 54.6562 6.93994C54.6771 6.85661 54.6875 6.77327 54.6875 6.68994C54.6875 5.02327 54.0938 3.60661 52.9062 2.43994C51.7188 1.27327 50.3125 0.689941 48.6875 0.689941C47.6042 0.689941 46.6146 0.950359 45.7188 1.47119C44.8229 1.99202 44.1042 2.66911 43.5625 3.50244C42.2292 3.54411 41.0521 3.98161 40.0312 4.81494C39.0104 5.64827 38.3333 6.68994 38 7.93994V8.00244C37.0417 8.37744 36.2812 8.97119 35.7188 9.78369C35.1562 10.5962 34.875 11.5233 34.875 12.5649C34.875 13.0233 34.9271 13.4504 35.0312 13.8462C35.1354 14.242 35.2708 14.6274 35.4375 15.0024V14.9399C35.3542 15.0649 35.2604 15.2004 35.1562 15.3462C35.0521 15.492 34.9792 15.6274 34.9375 15.7524L34.875 15.8149L34.0625 14.0024C33.7292 13.2941 33.2708 12.6795 32.6875 12.1587C32.1042 11.6379 31.4375 11.2733 30.6875 11.0649L30.625 11.0024C30.5417 10.9608 30.4271 10.9295 30.2812 10.9087C30.1354 10.8879 30 10.8774 29.875 10.8774L29.8125 10.8149L29.5 5.50244C29.5 5.25244 29.3958 5.03369 29.1875 4.84619C28.9792 4.65869 28.75 4.56494 28.5 4.56494C28.2083 4.56494 27.9688 4.65869 27.7812 4.84619C27.5938 5.03369 27.5 5.27327 27.5 5.56494C27.5 5.56494 27.5 5.57536 27.5 5.59619C27.5 5.61702 27.5 5.62744 27.5 5.62744L27.8125 10.8774C27.6458 10.9191 27.4792 10.9712 27.3125 11.0337C27.1458 11.0962 26.9792 11.1483 26.8125 11.1899H26.875L25.5 6.43994C25.4583 6.23161 25.3438 6.05452 25.1562 5.90869C24.9688 5.76286 24.7708 5.68994 24.5625 5.68994C24.2708 5.68994 24.0312 5.78369 23.8438 5.97119C23.6562 6.15869 23.5625 6.39827 23.5625 6.68994C23.5625 6.73161 23.5625 6.77327 23.5625 6.81494C23.5625 6.85661 23.5625 6.91911 23.5625 7.00244V6.93994L23.625 7.06494L23.5 7.00244C23.4167 6.91911 23.3125 6.84619 23.1875 6.78369C23.0625 6.72119 22.9375 6.68994 22.8125 6.68994C22.6875 6.68994 22.5625 6.71077 22.4375 6.75244C22.3125 6.79411 22.2083 6.87744 22.125 7.00244V6.93994L19.125 9.81494C19.0417 9.93994 18.9688 10.0545 18.9062 10.1587C18.8438 10.2629 18.8125 10.3983 18.8125 10.5649C18.8125 10.7316 18.8542 10.8879 18.9375 11.0337C19.0208 11.1795 19.1458 11.2941 19.3125 11.3774L23.75 14.3149C23.7083 14.4399 23.6667 14.5649 23.625 14.6899C23.5833 14.8149 23.5417 14.9608 23.5 15.1274C23.4583 15.3358 23.4271 15.5441 23.4062 15.7524C23.3854 15.9608 23.375 16.1691 23.375 16.3774C23.375 16.4608 23.375 16.5441 23.375 16.6274C23.375 16.7108 23.375 16.7941 23.375 16.8774C22.625 17.0024 21.9167 17.2212 21.25 17.5337C20.5833 17.8462 19.9583 18.2316 19.375 18.6899L18.6875 18.0024C18.6042 17.9191 18.5 17.8462 18.375 17.7837C18.25 17.7212 18.125 17.6899 18 17.6899C17.75 17.6899 17.5208 17.7941 17.3125 18.0024C17.1042 18.2108 17 18.4399 17 18.6899C17 18.8149 17.0312 18.9399 17.0938 19.0649C17.1562 19.1899 17.2292 19.2941 17.3125 19.3774L17.375 19.4399C16.5417 19.6483 15.8229 20.0233 15.2188 20.5649C14.6146 21.1066 14.1667 21.7733 13.875 22.5649H13.8125L13.75 22.8774L11.3125 22.0649C11.2708 22.0233 11.2292 22.0024 11.1875 22.0024C11.1458 22.0024 11.0833 22.0024 11 22.0024C10.7083 22.0024 10.4688 22.0962 10.2812 22.2837C10.0938 22.4712 10 22.7108 10 23.0024C10 23.2108 10.0625 23.3983 10.1875 23.5649C10.3125 23.7316 10.4792 23.8566 10.6875 23.9399L30.8125 30.8774C30.9792 30.9608 31.125 31.0858 31.25 31.2524C31.375 31.4191 31.4375 31.6274 31.4375 31.8774C31.4375 32.1274 31.3438 32.3566 31.1562 32.5649C30.9688 32.7733 30.7292 32.8774 30.4375 32.8774C30.3958 32.8774 30.3438 32.867 30.2812 32.8462C30.2188 32.8254 30.1667 32.8149 30.125 32.8149L3.6875 23.6274C3.47917 23.5441 3.3125 23.4191 3.1875 23.2524C3.0625 23.0858 3 22.8983 3 22.6899C3 22.4816 3.05208 22.3045 3.15625 22.1587C3.26042 22.0129 3.39583 21.8983 3.5625 21.8149C3.64583 21.7733 3.71875 21.742 3.78125 21.7212C3.84375 21.7004 3.91667 21.6899 4 21.6899C4.04167 21.6899 4.09375 21.6899 4.15625 21.6899C4.21875 21.6899 4.27083 21.7108 4.3125 21.7524L6.875 22.6274C6.95833 22.6691 7.03125 22.6899 7.09375 22.6899C7.15625 22.6899 7.20833 22.6899 7.25 22.6899C7.54167 22.6899 7.78125 22.5962 7.96875 22.4087C8.15625 22.2212 8.25 21.9816 8.25 21.6899C8.25 21.4816 8.1875 21.2941 8.0625 21.1274C7.9375 20.9608 7.77083 20.8358 7.5625 20.7524L5 19.8774C4.83333 19.7941 4.66667 19.742 4.5 19.7212C4.33333 19.7004 4.14583 19.6899 3.9375 19.6899C3.14583 19.6899 2.44792 19.9816 1.84375 20.5649C1.23958 21.1483 0.9375 21.8566 0.9375 22.6899C0.9375 23.3566 1.13542 23.9399 1.53125 24.4399C1.92708 24.9399 2.41667 25.2941 3 25.5024L6.375 26.6899H3C2.16667 26.6899 1.45833 26.9816 0.875 27.5649C0.291667 28.1483 0 28.8566 0 29.6899C0 30.5233 0.291667 31.2316 0.875 31.8149C1.45833 32.3983 2.16667 32.6899 3 32.6899H23.6875L29.5 34.6899C29.625 34.7316 29.7708 34.7733 29.9375 34.8149C30.1042 34.8566 30.2917 34.8774 30.5 34.8774C31.3333 34.8774 32.0417 34.5858 32.625 34.0024C33.2083 33.4191 33.5 32.7108 33.5 31.8774C33.5 31.2108 33.3021 30.617 32.9062 30.0962C32.5104 29.5754 32.0208 29.2108 31.4375 29.0024L30.5 28.6899H57C57.2917 28.6899 57.5312 28.7837 57.7188 28.9712C57.9062 29.1587 58 29.3983 58 29.6899C58 29.9816 57.9062 30.2212 57.7188 30.4087C57.5312 30.5962 57.2917 30.6899 57 30.6899H36.4375C36.1875 30.6899 35.9583 30.7837 35.75 30.9712C35.5417 31.1587 35.4375 31.3983 35.4375 31.6899C35.4375 31.9816 35.5417 32.2212 35.75 32.4087C35.9583 32.5962 36.1875 32.6899 36.4375 32.6899H53.875L53.25 37.0024C52.9583 37.1274 52.6875 37.2733 52.4375 37.4399C52.1875 37.6066 51.9583 37.7733 51.75 37.9399V37.8149C51.75 37.7316 51.75 37.6691 51.75 37.6274C51.75 37.5858 51.75 37.5233 51.75 37.4399C51.75 37.1066 51.6875 36.7837 51.5625 36.4712C51.4375 36.1587 51.2708 35.8774 51.0625 35.6274C50.8125 35.3358 50.5104 35.117 50.1562 34.9712C49.8021 34.8254 49.4167 34.7524 49 34.7524C48.5833 34.7524 48.1979 34.8254 47.8438 34.9712C47.4896 35.117 47.1875 35.3358 46.9375 35.6274C46.7292 35.8774 46.5625 36.1587 46.4375 36.4712C46.3125 36.7837 46.25 37.1066 46.25 37.4399C46.25 37.5233 46.25 37.5962 46.25 37.6587C46.25 37.7212 46.25 37.7733 46.25 37.8149L46.625 40.7524C46.5 40.7108 46.3854 40.6899 46.2812 40.6899C46.1771 40.6899 46.0833 40.6899 46 40.6899C45.0417 40.6899 44.1354 40.8462 43.2812 41.1587C42.4271 41.4712 41.6667 41.8983 41 42.4399V41.6899C41 40.8566 40.7083 40.1483 40.125 39.5649C39.5417 38.9816 38.8333 38.6899 38 38.6899C37.1667 38.6899 36.4583 38.9816 35.875 39.5649C35.2917 40.1483 35 40.8566 35 41.6899V53.6899C35 54.5233 35.2917 55.2316 35.875 55.8149C36.4583 56.3983 37.1667 56.6899 38 56.6899C38.375 56.6899 38.7396 56.617 39.0938 56.4712C39.4479 56.3254 39.7708 56.1274 40.0625 55.8774C40.3125 56.4191 40.6042 56.9191 40.9375 57.3774C41.2708 57.8358 41.625 58.2733 42 58.6899H20C19.7083 58.6899 19.4688 58.7837 19.2812 58.9712C19.0938 59.1587 19 59.3983 19 59.6899C19 59.9816 19.0938 60.2212 19.2812 60.4087C19.4688 60.5962 19.7083 60.6899 20 60.6899H45.8125C45.8125 60.6899 45.8333 60.6899 45.875 60.6899C45.9167 60.6899 45.9479 60.6899 45.9688 60.6899C45.9896 60.6899 46 60.6899 46 60.6899C46.5417 60.6899 47.0729 60.6379 47.5938 60.5337C48.1146 60.4295 48.6042 60.2733 49.0625 60.0649L49 60.1274C49.4583 60.2941 49.9375 60.4295 50.4375 60.5337C50.9375 60.6379 51.4583 60.6899 52 60.6899C52.9167 60.6899 53.8021 60.3983 54.6562 59.8149C55.5104 59.2316 56.3125 58.3983 57.0625 57.3149C57.1458 57.2316 57.1979 57.1379 57.2188 57.0337C57.2396 56.9295 57.25 56.8358 57.25 56.7524C57.25 56.4608 57.1562 56.2212 56.9688 56.0337C56.7812 55.8462 56.5417 55.7524 56.25 55.7524C56.0833 55.7524 55.9271 55.7837 55.7812 55.8462C55.6354 55.9087 55.5208 56.0233 55.4375 56.1899C54.8958 56.9816 54.3229 57.5962 53.7188 58.0337C53.1146 58.4712 52.5417 58.6899 52 58.6899C51.5417 58.6899 51.0938 58.6379 50.6562 58.5337C50.2188 58.4295 49.7917 58.2733 49.375 58.0649L49.4375 58.1274C49.3542 58.0858 49.2812 58.0545 49.2188 58.0337C49.1562 58.0129 49.0833 58.0024 49 58.0024C48.9167 58.0024 48.8438 58.0129 48.7812 58.0337C48.7188 58.0545 48.6458 58.0858 48.5625 58.1274C48.1875 58.2941 47.7812 58.4295 47.3438 58.5337C46.9062 58.6379 46.4583 58.6899 46 58.6899C46 58.6899 45.9896 58.6899 45.9688 58.6899C45.9479 58.6899 45.9375 58.6899 45.9375 58.6899C44.4375 58.6483 43.0729 57.4295 41.8438 55.0337C40.6146 52.6379 40 50.5233 40 48.6899C40 47.0233 40.5833 45.6066 41.75 44.4399C42.9167 43.2733 44.3333 42.6899 46 42.6899C46.1667 42.6899 46.3229 42.7004 46.4688 42.7212C46.6146 42.742 46.7708 42.7524 46.9375 42.7524H46.875V42.8149C46.9583 43.3566 47.1979 43.8045 47.5938 44.1587C47.9896 44.5129 48.4583 44.6899 49 44.6899C49.5417 44.6899 50.0104 44.5129 50.4062 44.1587C50.8021 43.8045 51.0417 43.3566 51.125 42.8149V42.7524C51.25 42.7524 51.3854 42.742 51.5312 42.7212C51.6771 42.7004 51.8333 42.6899 52 42.6899C53.6667 42.6899 55.0833 43.2733 56.25 44.4399C57.4167 45.6066 58 47.0233 58 48.6899C57.9583 49.4399 57.8646 50.1691 57.7188 50.8774C57.5729 51.5858 57.375 52.2524 57.125 52.8774V52.8149C57.125 52.8566 57.1146 52.9087 57.0938 52.9712C57.0729 53.0337 57.0625 53.1066 57.0625 53.1899C57.0625 53.4816 57.1562 53.7212 57.3438 53.9087C57.5312 54.0962 57.7708 54.1899 58.0625 54.1899C58.2708 54.1899 58.4688 54.1274 58.6562 54.0024C58.8438 53.8774 58.9583 53.7108 59 53.5024C59.2917 52.7941 59.5208 52.0337 59.6875 51.2212C59.8542 50.4087 59.9583 49.5649 60 48.6899C60 47.1899 59.625 45.8254 58.875 44.5962C58.125 43.367 57.1458 42.4191 55.9375 41.7524ZM3 30.6899C2.70833 30.6899 2.46875 30.5962 2.28125 30.4087C2.09375 30.2212 2 29.9816 2 29.6899C2 29.3983 2.09375 29.1587 2.28125 28.9712C2.46875 28.7837 2.70833 28.6899 3 28.6899H12.1875L17.9375 30.6899H3ZM56 18.0024C56 17.9191 56.0104 17.8358 56.0312 17.7524C56.0521 17.6691 56.0833 17.5858 56.125 17.5024V17.4399C56.375 17.3149 56.6042 17.1795 56.8125 17.0337C57.0208 16.8879 57.2292 16.7316 57.4375 16.5649C57.6042 16.7316 57.7396 16.9399 57.8438 17.1899C57.9479 17.4399 58 17.7108 58 18.0024C58 18.4191 57.8646 18.8045 57.5938 19.1587C57.3229 19.5129 57 19.7524 56.625 19.8774H56.5625C56.3542 19.9608 56.1875 20.0858 56.0625 20.2524C55.9375 20.4191 55.875 20.6066 55.875 20.8149C55.875 20.8566 55.875 20.8983 55.875 20.9399C55.875 20.9816 55.8958 21.0233 55.9375 21.0649C55.9375 21.1483 55.9479 21.2316 55.9688 21.3149C55.9896 21.3983 56 21.5024 56 21.6274C56 21.7108 55.9896 21.7941 55.9688 21.8774C55.9479 21.9608 55.9375 22.0441 55.9375 22.1274V22.0649C55.8125 22.5233 55.5729 22.8879 55.2188 23.1587C54.8646 23.4295 54.4583 23.5649 54 23.5649C53.9167 23.5649 53.8229 23.5649 53.7188 23.5649C53.6146 23.5649 53.5208 23.5441 53.4375 23.5024H53.5C53.2917 23.4608 53.0938 23.3774 52.9062 23.2524C52.7188 23.1274 52.5625 22.9816 52.4375 22.8149L53.125 21.2524C53.25 21.2108 53.3542 21.1691 53.4375 21.1274C53.5208 21.0858 53.6042 21.0441 53.6875 21.0024C54.2292 20.6691 54.7083 20.242 55.125 19.7212C55.5417 19.2004 55.8333 18.6274 56 18.0024ZM50.8125 21.6274L48.5625 26.6899H42.25L42.5 25.8149C42.5 25.8149 42.5104 25.7837 42.5312 25.7212C42.5521 25.6587 42.5625 25.6066 42.5625 25.5649C42.5625 25.5649 42.5521 25.5441 42.5312 25.5024C42.5104 25.4608 42.5 25.4191 42.5 25.3774L40.9375 17.5024C41.0625 17.4608 41.1979 17.4191 41.3438 17.3774C41.4896 17.3358 41.625 17.2733 41.75 17.1899L41.6875 17.2524C41.9792 17.5858 42.2917 17.8774 42.625 18.1274C42.9583 18.3774 43.3125 18.5858 43.6875 18.7524H43.75L44.9375 24.8149C44.9792 25.0233 45.0833 25.2004 45.25 25.3462C45.4167 25.492 45.6042 25.5649 45.8125 25.5649C45.8542 25.5649 45.875 25.5649 45.875 25.5649C45.875 25.5649 45.8958 25.5649 45.9375 25.5649C46.1458 25.5649 46.3333 25.5129 46.5 25.4087C46.6667 25.3045 46.7708 25.1691 46.8125 25.0024H46.875L48.75 21.0024C49.0417 21.2108 49.3542 21.367 49.6875 21.4712C50.0208 21.5754 50.375 21.6274 50.75 21.6274H50.8125ZM46.75 19.0024C46.8333 19.1274 46.9062 19.242 46.9688 19.3462C47.0312 19.4504 47.1042 19.5441 47.1875 19.6274L46.3125 21.4399L45.875 19.1274C46.0417 19.1274 46.1979 19.117 46.3438 19.0962C46.4896 19.0754 46.6458 19.0441 46.8125 19.0024H46.75ZM38.875 17.5024L39.25 19.3149C39.125 19.3566 39 19.3879 38.875 19.4087C38.75 19.4295 38.625 19.4399 38.5 19.4399C38.4167 19.4399 38.3333 19.4295 38.25 19.4087C38.1667 19.3879 38.0833 19.3774 38 19.3774C37.5833 19.2524 37.2396 19.0129 36.9688 18.6587C36.6979 18.3045 36.5625 17.8983 36.5625 17.4399C36.5625 17.3566 36.5625 17.2629 36.5625 17.1587C36.5625 17.0545 36.5833 16.9608 36.625 16.8774V16.9399C36.625 16.8566 36.6458 16.7837 36.6875 16.7212C36.7292 16.6587 36.75 16.6066 36.75 16.5649C37 16.7733 37.2708 16.9504 37.5625 17.0962C37.8542 17.242 38.1667 17.3566 38.5 17.4399H38.5625C38.6042 17.4399 38.6562 17.4504 38.7188 17.4712C38.7812 17.492 38.8333 17.5024 38.875 17.5024ZM37.5 21.3149C37.6667 21.3566 37.8333 21.3879 38 21.4087C38.1667 21.4295 38.3542 21.4399 38.5625 21.4399C38.7292 21.4399 38.9167 21.4191 39.125 21.3774C39.3333 21.3358 39.5208 21.2941 39.6875 21.2524H39.625L40.5 25.5649L40.1875 26.6899H40L37.5 21.3149ZM37.8125 26.6899H35.8125C35.8542 26.6899 35.8958 26.6795 35.9375 26.6587C35.9792 26.6379 36.0208 26.6274 36.0625 26.6274L37.4375 25.8149L37.8125 26.6899ZM30.9375 13.3774L29.875 14.0024C29.75 14.0858 29.6354 14.2004 29.5312 14.3462C29.4271 14.492 29.375 14.6691 29.375 14.8774C29.375 15.1274 29.4792 15.3566 29.6875 15.5649C29.8958 15.7733 30.125 15.8774 30.375 15.8774C30.5 15.8774 30.6042 15.8566 30.6875 15.8149C30.7708 15.7733 30.8542 15.7316 30.9375 15.6899H30.875L32.25 14.9399L33.5625 17.6274L32.375 18.3149C32.25 18.3983 32.1354 18.5129 32.0312 18.6587C31.9271 18.8045 31.875 18.9816 31.875 19.1899C31.875 19.4399 31.9792 19.6691 32.1875 19.8774C32.3958 20.0858 32.625 20.1899 32.875 20.1899C33 20.1899 33.1042 20.1795 33.1875 20.1587C33.2708 20.1379 33.3542 20.1066 33.4375 20.0649H33.375L34.4375 19.4399L36.5625 24.0024L35.0625 24.8774C34.8958 24.9608 34.7708 25.0754 34.6875 25.2212C34.6042 25.367 34.5625 25.5441 34.5625 25.7524C34.5625 25.9608 34.625 26.1483 34.75 26.3149C34.875 26.4816 35.0417 26.6066 35.25 26.6899H31.75L30.625 25.1274L33.1875 23.6274C33.3125 23.5441 33.4271 23.4295 33.5312 23.2837C33.6354 23.1379 33.6875 22.9608 33.6875 22.7524C33.6875 22.5024 33.5833 22.2733 33.375 22.0649C33.1667 21.8566 32.9375 21.7524 32.6875 21.7524C32.6042 21.7524 32.5104 21.7629 32.4062 21.7837C32.3021 21.8045 32.2292 21.8566 32.1875 21.9399V21.8774L29.5 23.4399L27.8125 21.0024L29.8125 19.8149C29.9375 19.7316 30.0521 19.617 30.1562 19.4712C30.2604 19.3254 30.3125 19.1483 30.3125 18.9399C30.3125 18.6899 30.2083 18.4608 30 18.2524C29.7917 18.0441 29.5625 17.9399 29.3125 17.9399C29.2292 17.9399 29.1458 17.9504 29.0625 17.9712C28.9792 17.992 28.8958 18.0233 28.8125 18.0649L26.625 19.3149L26 18.4399C25.7917 18.1483 25.6354 17.8254 25.5312 17.4712C25.4271 17.117 25.375 16.7524 25.375 16.3774C25.375 15.3774 25.7292 14.5233 26.4375 13.8149C27.1458 13.1066 27.9792 12.7524 28.9375 12.7524C29.1458 12.7524 29.3438 12.7733 29.5312 12.8149C29.7188 12.8566 29.8958 12.8983 30.0625 12.9399C30.2292 12.9816 30.3854 13.0441 30.5312 13.1274C30.6771 13.2108 30.8125 13.2941 30.9375 13.3774ZM21.4375 10.4399L22.75 9.12744L24.75 11.1899L25.125 12.3149C25.0833 12.3566 25.0312 12.4087 24.9688 12.4712C24.9062 12.5337 24.8542 12.5858 24.8125 12.6274L21.4375 10.4399ZM15.6875 23.2524C15.9375 22.7108 16.3125 22.2524 16.8125 21.8774C17.3125 21.5024 17.875 21.3149 18.5 21.3149C18.5417 21.3149 18.5625 21.3149 18.5625 21.3149L18.3125 22.1274C18.1458 22.5024 17.9062 22.8462 17.5938 23.1587C17.2812 23.4712 16.9167 23.6899 16.5 23.8149L15.625 23.5649L15.6875 23.2524ZM18.9375 24.6899C19.1875 24.4399 19.4167 24.1587 19.625 23.8462C19.8333 23.5337 20 23.1899 20.125 22.8149H20.1875L20.3125 22.3774C20.3958 22.4608 20.4896 22.5233 20.5938 22.5649C20.6979 22.6066 20.8125 22.6274 20.9375 22.6274C21.2292 22.6274 21.4688 22.5337 21.6562 22.3462C21.8438 22.1587 21.9375 21.9191 21.9375 21.6274C21.9375 21.5024 21.9167 21.3879 21.875 21.2837C21.8333 21.1795 21.7708 21.0858 21.6875 21.0024L20.8125 20.1274C21.2708 19.7941 21.7604 19.5129 22.2812 19.2837C22.8021 19.0545 23.3333 18.8983 23.875 18.8149H23.9375C24.0208 18.9399 24.0938 19.0649 24.1562 19.1899C24.2188 19.3149 24.2917 19.4399 24.375 19.5649L29.3125 26.6899H24.75L18.9375 24.6899ZM39 53.6899C39 53.9816 38.9062 54.2212 38.7188 54.4087C38.5312 54.5962 38.2917 54.6899 38 54.6899C37.7083 54.6899 37.4688 54.5962 37.2812 54.4087C37.0938 54.2212 37 53.9816 37 53.6899V41.6899C37 41.3983 37.0938 41.1587 37.2812 40.9712C37.4688 40.7837 37.7083 40.6899 38 40.6899C38.2917 40.6899 38.5312 40.7837 38.7188 40.9712C38.9062 41.1587 39 41.3983 39 41.6899V44.8149C38.6667 45.3983 38.4167 46.0129 38.25 46.6587C38.0833 47.3045 38 47.9816 38 48.6899C38.0417 49.6066 38.1562 50.492 38.3438 51.3462C38.5312 52.2004 38.7708 53.0233 39.0625 53.8149V53.6899H39ZM55 38.6899H55.8125C55.6042 39.2733 55.25 39.7524 54.75 40.1274C54.25 40.5024 53.6667 40.6899 53 40.6899H52.1875C52.3958 40.1066 52.75 39.6274 53.25 39.2524C53.75 38.8774 54.3333 38.6899 55 38.6899ZM48.875 42.5649L48.25 37.5649C48.25 37.5233 48.25 37.5024 48.25 37.5024C48.25 37.5024 48.25 37.4816 48.25 37.4399C48.25 37.2316 48.3229 37.0545 48.4688 36.9087C48.6146 36.7629 48.7917 36.6899 49 36.6899C49.2083 36.6899 49.3854 36.7629 49.5312 36.9087C49.6771 37.0545 49.75 37.2316 49.75 37.4399C49.75 37.4816 49.75 37.5024 49.75 37.5024C49.75 37.5024 49.75 37.5233 49.75 37.5649L49.125 42.5649C49.125 42.6066 49.1146 42.6379 49.0938 42.6587C49.0729 42.6795 49.0417 42.6899 49 42.6899C48.9583 42.6899 48.9271 42.6795 48.9062 42.6587C48.8854 42.6379 48.875 42.6066 48.875 42.5649ZM53.375 44.8774C53.3333 44.8358 53.2708 44.8045 53.1875 44.7837C53.1042 44.7629 53.0208 44.7524 52.9375 44.7524C52.6458 44.7524 52.4062 44.8566 52.2188 45.0649C52.0312 45.2733 51.9375 45.5024 51.9375 45.7524C51.9375 45.9608 51.9896 46.1379 52.0938 46.2837C52.1979 46.4295 52.3125 46.5441 52.4375 46.6274C52.7708 46.7941 53.0417 47.0024 53.25 47.2524C53.4583 47.5024 53.625 47.7941 53.75 48.1274C53.8333 48.3358 53.9583 48.5024 54.125 48.6274C54.2917 48.7524 54.4792 48.8149 54.6875 48.8149C54.9792 48.8149 55.2188 48.7212 55.4062 48.5337C55.5938 48.3462 55.6875 48.1066 55.6875 47.8149C55.6875 47.7316 55.6875 47.6587 55.6875 47.5962C55.6875 47.5337 55.6667 47.4816 55.625 47.4399C55.4167 46.8983 55.125 46.4087 54.75 45.9712C54.375 45.5337 53.9375 45.1691 53.4375 44.8774H53.375Z" fill="#EEC044"/>
</svg>
