<svg width="41" height="41" viewBox="0 0 41 41" fill="none" xmlns="http://www.w3.org/2000/svg">
<path d="M20.98 0.279785C18.2196 0.279785 15.6284 0.800617 13.2065 1.84229C10.7847 2.90999 8.66878 4.3488 6.85889 6.15869C5.04899 7.96859 3.61019 10.0845 2.54248 12.5063C1.50081 14.9282 0.97998 17.5194 0.97998 20.2798C0.97998 23.0402 1.50081 25.6313 2.54248 28.0532C3.61019 30.4751 5.04899 32.591 6.85889 34.4009C8.66878 36.2108 10.7847 37.6496 13.2065 38.7173C15.6284 39.759 18.2196 40.2798 20.98 40.2798C23.7404 40.2798 26.3315 39.759 28.7534 38.7173C31.1753 37.6496 33.2912 36.2108 35.1011 34.4009C36.911 32.591 38.3498 30.4751 39.4175 28.0532C40.4591 25.6313 40.98 23.0402 40.98 20.2798C40.98 17.5194 40.4591 14.9282 39.4175 12.5063C38.3498 10.0845 36.911 7.96859 35.1011 6.15869C33.2912 4.3488 31.1753 2.90999 28.7534 1.84229C26.3315 0.800617 23.7404 0.279785 20.98 0.279785ZM31.0972 16.022L20.2769 26.8813C20.1206 27.0376 19.9383 27.1548 19.73 27.2329C19.5216 27.311 19.3133 27.3501 19.105 27.3501C18.8966 27.3501 18.6883 27.311 18.48 27.2329C18.2716 27.1548 18.0894 27.0376 17.9331 26.8813L12.5034 21.4517C12.1909 21.1392 12.0347 20.7485 12.0347 20.2798C12.0347 19.811 12.1909 19.4204 12.5034 19.1079C12.842 18.7694 13.2391 18.6001 13.6948 18.6001C14.1506 18.6001 14.5347 18.7694 14.8472 19.1079L19.105 23.3267L28.7534 13.6782C29.092 13.3657 29.4891 13.2095 29.9448 13.2095C30.4006 13.2095 30.7847 13.3657 31.0972 13.6782C31.4357 14.0168 31.605 14.4139 31.605 14.8696C31.605 15.3254 31.4357 15.7095 31.0972 16.022Z" fill="#4BAF47"/>
</svg>
