<svg width="41" height="41" viewBox="0 0 41 41" fill="none" xmlns="http://www.w3.org/2000/svg">
<path d="M20.98 0.879883C18.2196 0.879883 15.6284 1.40071 13.2065 2.44238C10.7847 3.51009 8.66878 4.94889 6.85889 6.75879C5.04899 8.56868 3.61019 10.6846 2.54248 13.1064C1.50081 15.5283 0.97998 18.1195 0.97998 20.8799C0.97998 23.6403 1.50081 26.2314 2.54248 28.6533C3.61019 31.0752 5.04899 33.1911 6.85889 35.001C8.66878 36.8109 10.7847 38.2497 13.2065 39.3174C15.6284 40.359 18.2196 40.8799 20.98 40.8799C23.7404 40.8799 26.3315 40.359 28.7534 39.3174C31.1753 38.2497 33.2912 36.8109 35.1011 35.001C36.911 33.1911 38.3498 31.0752 39.4175 28.6533C40.4591 26.2314 40.98 23.6403 40.98 20.8799C40.98 18.1195 40.4591 15.5283 39.4175 13.1064C38.3498 10.6846 36.911 8.56868 35.1011 6.75879C33.2912 4.94889 31.1753 3.51009 28.7534 2.44238C26.3315 1.40071 23.7404 0.879883 20.98 0.879883ZM31.0972 16.6221L20.2769 27.4814C20.1206 27.6377 19.9383 27.7549 19.73 27.833C19.5216 27.9111 19.3133 27.9502 19.105 27.9502C18.8966 27.9502 18.6883 27.9111 18.48 27.833C18.2716 27.7549 18.0894 27.6377 17.9331 27.4814L12.5034 22.0518C12.1909 21.7393 12.0347 21.3486 12.0347 20.8799C12.0347 20.4111 12.1909 20.0205 12.5034 19.708C12.842 19.3695 13.2391 19.2002 13.6948 19.2002C14.1506 19.2002 14.5347 19.3695 14.8472 19.708L19.105 23.9268L28.7534 14.2783C29.092 13.9658 29.4891 13.8096 29.9448 13.8096C30.4006 13.8096 30.7847 13.9658 31.0972 14.2783C31.4357 14.6169 31.605 15.014 31.605 15.4697C31.605 15.9255 31.4357 16.3096 31.0972 16.6221Z" fill="#C5CE38"/>
</svg>
