<svg width="41" height="41" viewBox="0 0 41 41" fill="none" xmlns="http://www.w3.org/2000/svg">
<path d="M20.98 0.469727C18.2196 0.469727 15.6284 0.990559 13.2065 2.03223C10.7847 3.09993 8.66878 4.53874 6.85889 6.34863C5.04899 8.15853 3.61019 10.2744 2.54248 12.6963C1.50081 15.1182 0.97998 17.7093 0.97998 20.4697C0.97998 23.2301 1.50081 25.8213 2.54248 28.2432C3.61019 30.665 5.04899 32.7809 6.85889 34.5908C8.66878 36.4007 10.7847 37.8395 13.2065 38.9072C15.6284 39.9489 18.2196 40.4697 20.98 40.4697C23.7404 40.4697 26.3315 39.9489 28.7534 38.9072C31.1753 37.8395 33.2912 36.4007 35.1011 34.5908C36.911 32.7809 38.3498 30.665 39.4175 28.2432C40.4591 25.8213 40.98 23.2301 40.98 20.4697C40.98 17.7093 40.4591 15.1182 39.4175 12.6963C38.3498 10.2744 36.911 8.15853 35.1011 6.34863C33.2912 4.53874 31.1753 3.09993 28.7534 2.03223C26.3315 0.990559 23.7404 0.469727 20.98 0.469727ZM31.0972 16.2119L20.2769 27.0713C20.1206 27.2275 19.9383 27.3447 19.73 27.4229C19.5216 27.501 19.3133 27.54 19.105 27.54C18.8966 27.54 18.6883 27.501 18.48 27.4229C18.2716 27.3447 18.0894 27.2275 17.9331 27.0713L12.5034 21.6416C12.1909 21.3291 12.0347 20.9385 12.0347 20.4697C12.0347 20.001 12.1909 19.6104 12.5034 19.2979C12.842 18.9593 13.2391 18.79 13.6948 18.79C14.1506 18.79 14.5347 18.9593 14.8472 19.2979L19.105 23.5166L28.7534 13.8682C29.092 13.5557 29.4891 13.3994 29.9448 13.3994C30.4006 13.3994 30.7847 13.5557 31.0972 13.8682C31.4357 14.2067 31.605 14.6038 31.605 15.0596C31.605 15.5153 31.4357 15.8994 31.0972 16.2119Z" fill="#EEC044"/>
</svg>
