<svg width="15" height="15" viewBox="0 0 15 15" fill="none" xmlns="http://www.w3.org/2000/svg">
<path d="M14.4226 7.75C14.4226 8.59766 14.2768 9.39974 13.9851 10.1562C13.6934 10.9128 13.2901 11.5872 12.7751 12.1797C12.2602 12.7721 11.6563 13.2689 10.9636 13.6699C10.2618 14.0618 9.50985 14.3216 8.70776 14.4492V9.70508H10.28L10.5808 7.75H8.70776V6.47852C8.70776 6.20508 8.78524 5.95898 8.94019 5.74023C9.09513 5.52148 9.38224 5.41211 9.80151 5.41211H10.6628V3.74414C10.6628 3.74414 10.5033 3.72363 10.1843 3.68262C9.86532 3.6416 9.51896 3.62109 9.14526 3.62109C8.37052 3.62109 7.74845 3.84668 7.27905 4.29785C6.80965 4.74902 6.57495 5.403 6.57495 6.25977V7.75H4.85229V9.70508H6.57495V14.4492C5.77287 14.3216 5.02091 14.0618 4.31909 13.6699C3.62638 13.2689 3.02254 12.7721 2.50757 12.1797C1.99259 11.5872 1.58927 10.9128 1.29761 10.1562C1.00594 9.39974 0.860107 8.59766 0.860107 7.75C0.860107 6.8112 1.03784 5.93164 1.39331 5.11133C1.74878 4.29102 2.23413 3.57324 2.84937 2.95801C3.4646 2.34277 4.18237 1.85742 5.00269 1.50195C5.823 1.14648 6.70256 0.96875 7.64136 0.96875C8.58016 0.96875 9.45972 1.14648 10.28 1.50195C11.1003 1.85742 11.8181 2.34277 12.4333 2.95801C13.0486 3.57324 13.5339 4.29102 13.8894 5.11133C14.2449 5.93164 14.4226 6.8112 14.4226 7.75Z" fill="#1F1E17"/>
</svg>
