<svg width="15" height="18" viewBox="0 0 15 18" fill="none" xmlns="http://www.w3.org/2000/svg">
<g clip-path="url(#clip0_1044_347)">
<path d="M14.5652 12.4629C14.5652 12.6387 14.53 12.873 14.4597 13.166C14.3894 13.459 14.3191 13.6875 14.2488 13.8516C14.1082 14.1914 13.698 14.5488 13.0183 14.9238C12.3855 15.2637 11.7644 15.4336 11.155 15.4336C10.9675 15.4336 10.7917 15.4219 10.6277 15.3984C10.4519 15.375 10.2585 15.334 10.0476 15.2754C9.83667 15.2051 9.67847 15.1523 9.573 15.1172C9.46753 15.082 9.28003 15.0176 9.0105 14.9238C8.74097 14.8184 8.5769 14.7539 8.51831 14.7305C7.86206 14.4961 7.27612 14.2207 6.7605 13.9043C5.91675 13.377 5.03198 12.6504 4.1062 11.7246C3.19214 10.8105 2.47144 9.93164 1.94409 9.08789C1.61597 8.57227 1.33472 7.98633 1.10034 7.33008C1.08862 7.25977 1.03003 7.0957 0.924561 6.83789C0.830811 6.56836 0.760498 6.38086 0.713623 6.27539C0.678467 6.16992 0.631592 6.01172 0.572998 5.80078C0.514404 5.58984 0.473389 5.39648 0.449951 5.2207C0.426514 5.04492 0.414795 4.86914 0.414795 4.69336C0.414795 4.07227 0.584717 3.45117 0.924561 2.83008C1.29956 2.15039 1.65698 1.74023 1.99683 1.59961C2.16089 1.5293 2.3894 1.45898 2.68237 1.38867C2.97534 1.31836 3.20972 1.2832 3.3855 1.2832C3.47925 1.2832 3.54956 1.29492 3.59644 1.31836C3.71362 1.35352 3.8894 1.60547 4.12378 2.07422C4.20581 2.20312 4.31128 2.38477 4.44019 2.61914C4.55737 2.85352 4.67456 3.06445 4.79175 3.25195C4.89722 3.45117 4.99683 3.63281 5.09058 3.79688C5.11401 3.82031 5.17261 3.90234 5.26636 4.04297C5.37183 4.18359 5.448 4.30664 5.49487 4.41211C5.54175 4.50586 5.56519 4.59961 5.56519 4.69336C5.56519 4.82227 5.46558 4.98633 5.26636 5.18555C5.07886 5.39648 4.87378 5.58398 4.65112 5.74805C4.42847 5.91211 4.21753 6.08789 4.01831 6.27539C3.83081 6.46289 3.73706 6.61523 3.73706 6.73242C3.73706 6.80273 3.75464 6.87891 3.78979 6.96094C3.82495 7.05469 3.85425 7.125 3.87769 7.17188C3.90112 7.21875 3.948 7.30078 4.01831 7.41797C4.08862 7.52344 4.12378 7.58789 4.12378 7.61133C4.6394 8.52539 5.22534 9.31055 5.88159 9.9668C6.53784 10.623 7.323 11.2031 8.23706 11.707C8.24878 11.7188 8.31323 11.7598 8.43042 11.8301C8.54761 11.9004 8.62964 11.9473 8.67651 11.9707C8.72339 11.9941 8.78784 12.0234 8.86987 12.0586C8.96362 12.0938 9.03979 12.1113 9.09839 12.1113C9.22729 12.1113 9.3855 12.0117 9.573 11.8125C9.7605 11.625 9.93628 11.4199 10.1003 11.1973C10.2644 10.9746 10.446 10.7637 10.6453 10.5645C10.8445 10.377 11.0144 10.2832 11.155 10.2832C11.2488 10.2832 11.3425 10.3066 11.4363 10.3535C11.53 10.4004 11.6472 10.4707 11.7878 10.5645C11.9285 10.6699 12.0164 10.7285 12.0515 10.7402C12.2156 10.8457 12.3914 10.9512 12.5789 11.0566C12.7781 11.1621 12.9949 11.2793 13.2292 11.4082C13.4636 11.5371 13.6394 11.6367 13.7566 11.707C14.2253 11.9414 14.4832 12.123 14.53 12.252C14.5535 12.2988 14.5652 12.3691 14.5652 12.4629Z" fill="#EEC044"/>
</g>
<defs>
<clipPath id="clip0_1044_347">
<rect width="14.16" height="18" fill="white" transform="matrix(1 0 0 -1 0.410034 18)"/>
</clipPath>
</defs>
</svg>
