<svg width="13" height="13" viewBox="0 0 13 13" fill="none" xmlns="http://www.w3.org/2000/svg">
<path d="M12.3006 0.789146C12.371 0.836054 12.4218 0.896643 12.4531 0.970913C12.4843 1.04518 12.4922 1.12532 12.4765 1.21131L10.7644 11.5075C10.7566 11.57 10.7331 11.6267 10.694 11.6775C10.655 11.7283 10.6081 11.7733 10.5533 11.8124C10.5221 11.828 10.4888 11.8397 10.4536 11.8475C10.4185 11.8554 10.3813 11.8593 10.3422 11.8593C10.3188 11.8593 10.2934 11.8573 10.266 11.8534C10.2387 11.8495 10.2093 11.8397 10.1781 11.8241L7.15255 10.5928L5.52252 12.5629C5.48343 12.6176 5.43457 12.6567 5.37593 12.6802C5.3173 12.7036 5.25671 12.7153 5.19417 12.7153C5.17071 12.7153 5.14726 12.7134 5.12381 12.7095C5.10035 12.7056 5.0769 12.6997 5.05344 12.6919C4.96745 12.6606 4.89904 12.6078 4.84822 12.5336C4.79741 12.4593 4.772 12.3792 4.772 12.2932V9.9478L10.5533 2.85307L3.39996 9.05656L0.749698 7.96597C0.671519 7.93469 0.608976 7.88583 0.562068 7.81938C0.515161 7.75293 0.487798 7.68061 0.47998 7.60243C0.47998 7.51644 0.497571 7.43826 0.532751 7.3679C0.567932 7.29754 0.620702 7.24281 0.691063 7.20372L11.8433 0.765693C11.8745 0.750057 11.9097 0.736376 11.9488 0.724649C11.9879 0.712922 12.0231 0.707059 12.0544 0.707059C12.1013 0.707059 12.1462 0.714877 12.1892 0.730513C12.2322 0.746148 12.2694 0.765693 12.3006 0.789146Z" fill="white"/>
</svg>
