<svg width="13" height="13" viewBox="0 0 13 13" fill="none" xmlns="http://www.w3.org/2000/svg">
<path d="M6.625 3.35547C7.0625 3.35547 7.47266 3.4375 7.85547 3.60156C8.23828 3.76562 8.57096 3.98893 8.85352 4.27148C9.13607 4.55404 9.35938 4.88672 9.52344 5.26953C9.6875 5.65234 9.76953 6.0625 9.76953 6.5C9.76953 6.92839 9.6875 7.33398 9.52344 7.7168C9.35938 8.09961 9.13607 8.43457 8.85352 8.72168C8.57096 9.00879 8.23828 9.23438 7.85547 9.39844C7.47266 9.5625 7.0625 9.64453 6.625 9.64453C6.19661 9.64453 5.79102 9.5625 5.4082 9.39844C5.02539 9.23438 4.69043 9.00879 4.40332 8.72168C4.11621 8.43457 3.89062 8.09961 3.72656 7.7168C3.5625 7.33398 3.48047 6.92839 3.48047 6.5C3.48047 6.0625 3.5625 5.65234 3.72656 5.26953C3.89062 4.88672 4.11621 4.55404 4.40332 4.27148C4.69043 3.98893 5.02539 3.76562 5.4082 3.60156C5.79102 3.4375 6.19661 3.35547 6.625 3.35547ZM6.625 8.53711C7.1901 8.53711 7.67318 8.33887 8.07422 7.94238C8.47526 7.5459 8.67578 7.0651 8.67578 6.5C8.67578 5.9349 8.47526 5.45182 8.07422 5.05078C7.67318 4.64974 7.1901 4.44922 6.625 4.44922C6.0599 4.44922 5.5791 4.64974 5.18262 5.05078C4.78613 5.45182 4.58789 5.9349 4.58789 6.5C4.58789 7.0651 4.78841 7.5459 5.18945 7.94238C5.59049 8.33887 6.06901 8.53711 6.625 8.53711ZM10.6309 3.23242C10.6309 3.43294 10.5602 3.60384 10.4189 3.74512C10.2777 3.88639 10.1022 3.95703 9.89258 3.95703C9.69206 3.95703 9.52116 3.88639 9.37988 3.74512C9.23861 3.60384 9.16797 3.43294 9.16797 3.23242C9.16797 3.02279 9.23861 2.84733 9.37988 2.70605C9.52116 2.56478 9.69206 2.49414 9.89258 2.49414C10.1022 2.49414 10.2777 2.56478 10.4189 2.70605C10.5602 2.84733 10.6309 3.02279 10.6309 3.23242ZM12.709 3.9707C12.7272 4.22591 12.7409 4.58594 12.75 5.05078C12.75 5.50651 12.75 5.9873 12.75 6.49316C12.75 6.99902 12.75 7.48438 12.75 7.94922C12.7409 8.41406 12.7272 8.77409 12.709 9.0293C12.6908 9.51237 12.611 9.97038 12.4697 10.4033C12.3285 10.8363 12.0801 11.2305 11.7246 11.5859C11.3691 11.9505 10.9749 12.2012 10.542 12.3379C10.109 12.4746 9.64648 12.5566 9.1543 12.584C8.89909 12.5931 8.53906 12.6022 8.07422 12.6113C7.61849 12.6204 7.1377 12.625 6.63184 12.625C6.12598 12.625 5.64062 12.6204 5.17578 12.6113C4.71094 12.6022 4.35091 12.5931 4.0957 12.584C3.60352 12.5566 3.14323 12.4746 2.71484 12.3379C2.28646 12.2012 1.88997 11.9505 1.52539 11.5859C1.16992 11.2305 0.923828 10.8363 0.787109 10.4033C0.650391 9.97038 0.568359 9.51237 0.541016 9.0293C0.522786 8.77409 0.513672 8.41406 0.513672 7.94922C0.504557 7.48438 0.5 6.99902 0.5 6.49316C0.5 5.9873 0.504557 5.50195 0.513672 5.03711C0.513672 4.58138 0.522786 4.22591 0.541016 3.9707C0.568359 3.47852 0.650391 3.01595 0.787109 2.58301C0.923828 2.15007 1.16992 1.75586 1.52539 1.40039C1.88997 1.04492 2.28874 0.79655 2.72168 0.655273C3.15462 0.513997 3.61263 0.434245 4.0957 0.416016C4.35091 0.397786 4.71094 0.384114 5.17578 0.375C5.64062 0.375 6.12598 0.375 6.63184 0.375C7.1377 0.375 7.61849 0.375 8.07422 0.375C8.53906 0.384114 8.89909 0.397786 9.1543 0.416016C9.64648 0.443359 10.109 0.525391 10.542 0.662109C10.9749 0.798828 11.3691 1.04492 11.7246 1.40039C12.0801 1.76497 12.3285 2.16146 12.4697 2.58984C12.611 3.01823 12.6908 3.47852 12.709 3.9707ZM11.4102 10.1094C11.4831 9.90885 11.5378 9.64909 11.5742 9.33008C11.6107 9.01107 11.6357 8.67839 11.6494 8.33203C11.6631 7.98568 11.6654 7.64844 11.6562 7.32031C11.6562 6.99219 11.6562 6.71875 11.6562 6.5C11.6562 6.27214 11.6562 5.99414 11.6562 5.66602C11.6654 5.33789 11.6631 5.00065 11.6494 4.6543C11.6357 4.30794 11.6107 3.97982 11.5742 3.66992C11.5378 3.35091 11.4831 3.09115 11.4102 2.89062C11.3008 2.61719 11.1458 2.38021 10.9453 2.17969C10.7448 1.97917 10.5078 1.82422 10.2344 1.71484C10.0339 1.64193 9.77409 1.58724 9.45508 1.55078C9.14518 1.51432 8.81706 1.48926 8.4707 1.47559C8.12435 1.46191 7.78711 1.45964 7.45898 1.46875C7.13086 1.46875 6.85286 1.46875 6.625 1.46875C6.40625 1.46875 6.13281 1.46875 5.80469 1.46875C5.47656 1.45964 5.13932 1.46191 4.79297 1.47559C4.44661 1.48926 4.11393 1.51432 3.79492 1.55078C3.47591 1.58724 3.21615 1.64193 3.01562 1.71484C2.74219 1.82422 2.50521 1.97917 2.30469 2.17969C2.10417 2.38021 1.95378 2.61719 1.85352 2.89062C1.77148 3.09115 1.71224 3.35091 1.67578 3.66992C1.63932 3.97982 1.61654 4.30794 1.60742 4.6543C1.59831 5.00065 1.59375 5.33789 1.59375 5.66602C1.60286 5.99414 1.60742 6.27214 1.60742 6.5C1.60742 6.71875 1.60286 6.99219 1.59375 7.32031C1.59375 7.64844 1.59831 7.98568 1.60742 8.33203C1.61654 8.67839 1.63932 9.01107 1.67578 9.33008C1.71224 9.64909 1.77148 9.90885 1.85352 10.1094C1.96289 10.3828 2.11784 10.6175 2.31836 10.8135C2.51888 11.0094 2.7513 11.1621 3.01562 11.2715C3.21615 11.3535 3.47591 11.4128 3.79492 11.4492C4.11393 11.4857 4.44661 11.5085 4.79297 11.5176C5.13932 11.5267 5.47656 11.5312 5.80469 11.5312C6.13281 11.5221 6.40625 11.5176 6.625 11.5176C6.85286 11.5176 7.13086 11.5221 7.45898 11.5312C7.78711 11.5312 8.12435 11.5267 8.4707 11.5176C8.81706 11.5085 9.14518 11.4857 9.45508 11.4492C9.77409 11.4128 10.0339 11.3535 10.2344 11.2715C10.5078 11.1621 10.7448 11.0072 10.9453 10.8066C11.1458 10.6061 11.3008 10.3737 11.4102 10.1094Z" fill="white"/>
</svg>
