<svg width="15" height="15" viewBox="0 0 15 15" fill="none" xmlns="http://www.w3.org/2000/svg">
<g clip-path="url(#clip0_1044_484)">
<path d="M13.4246 4.89258C13.4246 4.95638 13.4246 5.02018 13.4246 5.08398C13.4246 5.14779 13.4246 5.21159 13.4246 5.27539C13.4246 6.22331 13.2468 7.18034 12.8914 8.14648C12.5359 9.11263 12.0141 9.98763 11.3259 10.7715C10.6378 11.5553 9.78328 12.1979 8.76245 12.6992C7.75073 13.1914 6.58407 13.4375 5.26245 13.4375C4.86141 13.4375 4.46493 13.4102 4.073 13.3555C3.68107 13.2917 3.30054 13.2051 2.9314 13.0957C2.56226 12.9863 2.20451 12.8542 1.85815 12.6992C1.5118 12.5352 1.17912 12.3529 0.860107 12.1523C0.978597 12.1615 1.09481 12.1683 1.20874 12.1729C1.32267 12.1774 1.43888 12.1797 1.55737 12.1797C2.22274 12.1797 2.85848 12.0726 3.4646 11.8584C4.07072 11.6442 4.61987 11.3457 5.11206 10.9629C4.48315 10.9447 3.92489 10.7487 3.43726 10.375C2.94963 10.0013 2.61466 9.5319 2.43237 8.9668C2.52352 8.97591 2.61239 8.98503 2.69897 8.99414C2.78556 9.00326 2.87899 9.00781 2.97925 9.00781C3.10685 9.00781 3.23446 9.00098 3.36206 8.9873C3.48966 8.97363 3.61271 8.94857 3.7312 8.91211C3.07495 8.77539 2.52808 8.44727 2.09058 7.92773C1.65308 7.4082 1.43433 6.79753 1.43433 6.0957V6.06836C1.62573 6.16862 1.83081 6.25065 2.04956 6.31445C2.26831 6.37826 2.49162 6.41471 2.71948 6.42383C2.33667 6.16862 2.02905 5.83138 1.79663 5.41211C1.56421 4.99284 1.448 4.53255 1.448 4.03125C1.448 3.76693 1.48218 3.514 1.55054 3.27246C1.6189 3.03092 1.71232 2.80534 1.83081 2.5957C2.18628 3.02409 2.58276 3.41602 3.02026 3.77148C3.45776 4.12695 3.92716 4.43457 4.42847 4.69434C4.92977 4.9541 5.46297 5.16146 6.02808 5.31641C6.58407 5.47135 7.15828 5.5625 7.75073 5.58984C7.7325 5.48047 7.71655 5.37109 7.70288 5.26172C7.68921 5.15234 7.68237 5.04297 7.68237 4.93359C7.68237 4.54167 7.75529 4.16797 7.90112 3.8125C8.05607 3.46615 8.26343 3.16309 8.52319 2.90332C8.78296 2.64355 9.08602 2.44075 9.43237 2.29492C9.77873 2.13997 10.1524 2.0625 10.5535 2.0625C10.9636 2.0625 11.3487 2.14453 11.7087 2.30859C12.0688 2.47266 12.3809 2.69141 12.6453 2.96484C12.9734 2.91016 13.2901 2.82357 13.5955 2.70508C13.9008 2.58659 14.1902 2.44531 14.4636 2.28125C14.3634 2.60938 14.2039 2.91016 13.9851 3.18359C13.7664 3.45703 13.5066 3.68034 13.2058 3.85352C13.4975 3.82617 13.7823 3.77376 14.0603 3.69629C14.3383 3.61882 14.6049 3.52539 14.8601 3.41602C14.6687 3.69857 14.45 3.96517 14.2039 4.21582C13.9578 4.46647 13.698 4.69206 13.4246 4.89258Z" fill="#1F1E17"/>
</g>
<defs>
<clipPath id="clip0_1044_484">
<rect width="14" height="14" fill="white" transform="matrix(1 0 0 -1 0.860107 14.75)"/>
</clipPath>
</defs>
</svg>
