<svg width="131" height="151" viewBox="0 0 131 151" fill="none" xmlns="http://www.w3.org/2000/svg">
<rect x="10.98" y="10.8101" width="110" height="110" rx="55" fill="#F8F7F0"/>
<g clip-path="url(#clip0_1044_149)">
<g clip-path="url(#clip1_1044_149)">
<path fill-rule="evenodd" clip-rule="evenodd" d="M65.2541 2.25891C99.952 2.25891 128.079 30.3863 128.079 65.0842C128.079 99.7811 99.952 127.909 65.2541 127.909C30.5572 127.909 2.42981 99.7811 2.42981 65.0842C2.42981 30.3863 30.5572 2.25891 65.2541 2.25891Z" stroke="#EEC044" stroke-width="2.89963" stroke-linecap="round" stroke-dasharray="1.45 5.8"/>
</g>
</g>
<rect x="40.98" y="100.81" width="50" height="50" rx="25" fill="#4BAF47"/>
<g clip-path="url(#clip2_1044_149)">
<path d="M105.062 149.873C106.903 149.873 108.468 149.882 109.757 149.9C111.046 149.918 111.691 149.94 111.691 149.966V150.435C111.691 150.478 111.115 150.519 109.964 150.557C108.813 150.595 107.237 150.628 105.234 150.656C103.232 150.685 100.895 150.707 98.2252 150.723C95.5091 150.739 92.6319 150.748 89.5936 150.748H88.4887C87.568 150.748 86.7854 150.743 86.1409 150.734C85.4964 150.725 85.1742 150.714 85.1742 150.701V150.607C85.1742 150.594 85.4964 150.583 86.1409 150.574C86.7854 150.565 87.568 150.56 88.4887 150.56H89.5936C92.0335 150.56 94.1166 150.548 95.8429 150.523C97.5692 150.499 98.4324 150.47 98.4324 150.435V150.31H87.3839C85.5424 150.31 83.9772 150.301 82.6882 150.283C81.3992 150.264 80.7547 150.242 80.7547 150.216V149.966C80.7547 149.94 81.3992 149.918 82.6882 149.9C83.9772 149.882 85.5424 149.873 87.3839 149.873H105.062ZM65.2868 149.873C67.1282 149.873 68.6934 149.882 69.9824 149.9C71.2714 149.918 71.9159 149.94 71.9159 149.966V150.435C71.9159 150.478 71.3405 150.519 70.1896 150.557C69.0387 150.595 67.462 150.628 65.4594 150.656C63.4569 150.685 61.1206 150.707 58.4505 150.723C55.7344 150.739 52.8572 150.748 49.8188 150.748H48.714C47.7932 150.748 47.0106 150.743 46.3661 150.734C45.7216 150.725 45.3994 150.714 45.3994 150.701V150.607C45.3994 150.594 45.7216 150.583 46.3661 150.574C47.0106 150.565 47.7932 150.56 48.714 150.56H49.8188C52.2587 150.56 54.3418 150.548 56.0681 150.523C57.7945 150.499 58.6576 150.47 58.6576 150.435V150.31H47.6091C45.7677 150.31 44.2025 150.301 42.9135 150.283C41.6245 150.264 40.98 150.242 40.98 150.216V149.966C40.98 149.94 41.6245 149.918 42.9135 149.9C44.2025 149.882 45.7677 149.873 47.6091 149.873H65.2868Z" fill="white"/>
</g>
<defs>
<clipPath id="clip0_1044_149">
<rect width="130" height="130" fill="white" transform="translate(0.97998 0.810059)"/>
</clipPath>
<clipPath id="clip1_1044_149">
<rect width="130" height="130" fill="white" transform="translate(0.97998 0.810059)"/>
</clipPath>
<clipPath id="clip2_1044_149">
<rect width="70.7107" height="1" fill="white" transform="matrix(1 0 0 -1 40.98 150.81)"/>
</clipPath>
</defs>
</svg>
