<svg width="14" height="13" viewBox="0 0 14 13" fill="none" xmlns="http://www.w3.org/2000/svg">
<path d="M6.98511 3.60547C7.42261 3.60547 7.83276 3.6875 8.21558 3.85156C8.59839 4.01562 8.93107 4.23893 9.21362 4.52148C9.49617 4.80404 9.71948 5.13672 9.88354 5.51953C10.0476 5.90234 10.1296 6.3125 10.1296 6.75C10.1296 7.17839 10.0476 7.58398 9.88354 7.9668C9.71948 8.34961 9.49617 8.68457 9.21362 8.97168C8.93107 9.25879 8.59839 9.48438 8.21558 9.64844C7.83276 9.8125 7.42261 9.89453 6.98511 9.89453C6.55672 9.89453 6.15112 9.8125 5.76831 9.64844C5.3855 9.48438 5.05054 9.25879 4.76343 8.97168C4.47632 8.68457 4.25073 8.34961 4.08667 7.9668C3.92261 7.58398 3.84058 7.17839 3.84058 6.75C3.84058 6.3125 3.92261 5.90234 4.08667 5.51953C4.25073 5.13672 4.47632 4.80404 4.76343 4.52148C5.05054 4.23893 5.3855 4.01562 5.76831 3.85156C6.15112 3.6875 6.55672 3.60547 6.98511 3.60547ZM6.98511 8.78711C7.55021 8.78711 8.03328 8.58887 8.43433 8.19238C8.83537 7.7959 9.03589 7.3151 9.03589 6.75C9.03589 6.1849 8.83537 5.70182 8.43433 5.30078C8.03328 4.89974 7.55021 4.69922 6.98511 4.69922C6.42 4.69922 5.93921 4.89974 5.54272 5.30078C5.14624 5.70182 4.948 6.1849 4.948 6.75C4.948 7.3151 5.14852 7.7959 5.54956 8.19238C5.9506 8.58887 6.42912 8.78711 6.98511 8.78711ZM10.991 3.48242C10.991 3.68294 10.9203 3.85384 10.7791 3.99512C10.6378 4.13639 10.4623 4.20703 10.2527 4.20703C10.0522 4.20703 9.88127 4.13639 9.73999 3.99512C9.59871 3.85384 9.52808 3.68294 9.52808 3.48242C9.52808 3.27279 9.59871 3.09733 9.73999 2.95605C9.88127 2.81478 10.0522 2.74414 10.2527 2.74414C10.4623 2.74414 10.6378 2.81478 10.7791 2.95605C10.9203 3.09733 10.991 3.27279 10.991 3.48242ZM13.0691 4.2207C13.0873 4.47591 13.101 4.83594 13.1101 5.30078C13.1101 5.75651 13.1101 6.2373 13.1101 6.74316C13.1101 7.24902 13.1101 7.73438 13.1101 8.19922C13.101 8.66406 13.0873 9.02409 13.0691 9.2793C13.0509 9.76237 12.9711 10.2204 12.8298 10.6533C12.6886 11.0863 12.4402 11.4805 12.0847 11.8359C11.7292 12.2005 11.335 12.4512 10.9021 12.5879C10.4692 12.7246 10.0066 12.8066 9.5144 12.834C9.2592 12.8431 8.89917 12.8522 8.43433 12.8613C7.9786 12.8704 7.4978 12.875 6.99194 12.875C6.48608 12.875 6.00073 12.8704 5.53589 12.8613C5.07104 12.8522 4.71102 12.8431 4.45581 12.834C3.96362 12.8066 3.50334 12.7246 3.07495 12.5879C2.64657 12.4512 2.25008 12.2005 1.8855 11.8359C1.53003 11.4805 1.28394 11.0863 1.14722 10.6533C1.0105 10.2204 0.928467 9.76237 0.901123 9.2793C0.882894 9.02409 0.873779 8.66406 0.873779 8.19922C0.864665 7.73438 0.860107 7.24902 0.860107 6.74316C0.860107 6.2373 0.864665 5.75195 0.873779 5.28711C0.873779 4.83138 0.882894 4.47591 0.901123 4.2207C0.928467 3.72852 1.0105 3.26595 1.14722 2.83301C1.28394 2.40007 1.53003 2.00586 1.8855 1.65039C2.25008 1.29492 2.64884 1.04655 3.08179 0.905273C3.51473 0.763997 3.97274 0.684245 4.45581 0.666016C4.71102 0.647786 5.07104 0.634114 5.53589 0.625C6.00073 0.625 6.48608 0.625 6.99194 0.625C7.4978 0.625 7.9786 0.625 8.43433 0.625C8.89917 0.634114 9.2592 0.647786 9.5144 0.666016C10.0066 0.693359 10.4692 0.775391 10.9021 0.912109C11.335 1.04883 11.7292 1.29492 12.0847 1.65039C12.4402 2.01497 12.6886 2.41146 12.8298 2.83984C12.9711 3.26823 13.0509 3.72852 13.0691 4.2207ZM11.7703 10.3594C11.8432 10.1589 11.8979 9.89909 11.9343 9.58008C11.9708 9.26107 11.9958 8.92839 12.0095 8.58203C12.0232 8.23568 12.0255 7.89844 12.0164 7.57031C12.0164 7.24219 12.0164 6.96875 12.0164 6.75C12.0164 6.52214 12.0164 6.24414 12.0164 5.91602C12.0255 5.58789 12.0232 5.25065 12.0095 4.9043C11.9958 4.55794 11.9708 4.22982 11.9343 3.91992C11.8979 3.60091 11.8432 3.34115 11.7703 3.14062C11.6609 2.86719 11.5059 2.63021 11.3054 2.42969C11.1049 2.22917 10.8679 2.07422 10.5945 1.96484C10.394 1.89193 10.1342 1.83724 9.81519 1.80078C9.50529 1.76432 9.17717 1.73926 8.83081 1.72559C8.48446 1.71191 8.14722 1.70964 7.81909 1.71875C7.49097 1.71875 7.21297 1.71875 6.98511 1.71875C6.76636 1.71875 6.49292 1.71875 6.16479 1.71875C5.83667 1.70964 5.49943 1.71191 5.15308 1.72559C4.80672 1.73926 4.47404 1.76432 4.15503 1.80078C3.83602 1.83724 3.57625 1.89193 3.37573 1.96484C3.10229 2.07422 2.86532 2.22917 2.66479 2.42969C2.46427 2.63021 2.31388 2.86719 2.21362 3.14062C2.13159 3.34115 2.07235 3.60091 2.03589 3.91992C1.99943 4.22982 1.97664 4.55794 1.96753 4.9043C1.95841 5.25065 1.95386 5.58789 1.95386 5.91602C1.96297 6.24414 1.96753 6.52214 1.96753 6.75C1.96753 6.96875 1.96297 7.24219 1.95386 7.57031C1.95386 7.89844 1.95841 8.23568 1.96753 8.58203C1.97664 8.92839 1.99943 9.26107 2.03589 9.58008C2.07235 9.89909 2.13159 10.1589 2.21362 10.3594C2.323 10.6328 2.47795 10.8675 2.67847 11.0635C2.87899 11.2594 3.11141 11.4121 3.37573 11.5215C3.57625 11.6035 3.83602 11.6628 4.15503 11.6992C4.47404 11.7357 4.80672 11.7585 5.15308 11.7676C5.49943 11.7767 5.83667 11.7812 6.16479 11.7812C6.49292 11.7721 6.76636 11.7676 6.98511 11.7676C7.21297 11.7676 7.49097 11.7721 7.81909 11.7812C8.14722 11.7812 8.48446 11.7767 8.83081 11.7676C9.17717 11.7585 9.50529 11.7357 9.81519 11.6992C10.1342 11.6628 10.394 11.6035 10.5945 11.5215C10.8679 11.4121 11.1049 11.2572 11.3054 11.0566C11.5059 10.8561 11.6609 10.6237 11.7703 10.3594Z" fill="#1F1E17"/>
</svg>
