<svg width="25" height="35" viewBox="0 0 25 35" fill="none" xmlns="http://www.w3.org/2000/svg">
<path d="M12.4213 31.0625C12.265 31.0625 12.1244 31.0156 11.9994 30.9219C11.8744 30.8281 11.7806 30.7188 11.7181 30.5938C11.2181 29.1875 10.5306 27.8984 9.65565 26.7266C8.78065 25.5547 7.85877 24.3906 6.89002 23.2344C6.01502 22.1719 5.14784 21.0781 4.28846 19.9531C3.42909 18.8281 2.70252 17.6094 2.10877 16.2969C2.04627 16.1094 2.05409 15.9141 2.13221 15.7109C2.21034 15.5078 2.34315 15.375 2.53065 15.3125C2.71815 15.2188 2.90565 15.2109 3.09315 15.2891C3.28065 15.3672 3.42127 15.5 3.51502 15.6875C4.04627 16.9062 4.71034 18.0391 5.50721 19.0859C6.30409 20.1328 7.14002 21.1875 8.01502 22.25C9.01502 23.4375 9.97596 24.6562 10.8978 25.9062C11.8197 27.1562 12.5619 28.5469 13.1244 30.0781C13.1869 30.2656 13.1791 30.4531 13.101 30.6406C13.0228 30.8281 12.89 30.9531 12.7025 31.0156C12.64 31.0469 12.5853 31.0625 12.5385 31.0625C12.4916 31.0625 12.4525 31.0625 12.4213 31.0625ZM12.4213 31.0625C12.39 31.0625 12.351 31.0625 12.3041 31.0625C12.2572 31.0625 12.2181 31.0469 12.1869 31.0156C11.9681 30.9531 11.8197 30.8281 11.7416 30.6406C11.6635 30.4531 11.6556 30.2656 11.7181 30.0781C12.2806 28.5469 13.0228 27.1562 13.9447 25.9062C14.8666 24.6562 15.8275 23.4375 16.8275 22.25C17.7025 21.1875 18.5385 20.1328 19.3353 19.0859C20.1322 18.0391 20.7963 16.9062 21.3275 15.6875C21.4213 15.5 21.5619 15.3672 21.7494 15.2891C21.9369 15.2109 22.14 15.2188 22.3588 15.3125C22.5463 15.375 22.6713 15.5078 22.7338 15.7109C22.7963 15.9141 22.7963 16.1094 22.7338 16.2969C22.14 17.6094 21.4213 18.8281 20.5775 19.9531C19.7338 21.0781 18.8588 22.1719 17.9525 23.2344C16.9838 24.3906 16.0619 25.5547 15.1869 26.7266C14.3119 27.8984 13.6244 29.1875 13.1244 30.5938C13.0619 30.7188 12.9681 30.8281 12.8431 30.9219C12.7181 31.0156 12.5775 31.0625 12.4213 31.0625ZM12.4213 17.75C10.7963 17.75 9.39002 17.1562 8.20252 15.9688C7.01502 14.7812 6.42127 13.375 6.42127 11.75C6.42127 10.125 7.01502 8.71875 8.20252 7.53125C9.39002 6.34375 10.7963 5.75 12.4213 5.75C14.0463 5.75 15.4525 6.34375 16.64 7.53125C17.8275 8.71875 18.4213 10.125 18.4213 11.75C18.4213 13.375 17.8275 14.7812 16.64 15.9688C15.4525 17.1562 14.0463 17.75 12.4213 17.75ZM12.4213 7.25C11.2025 7.25 10.1478 7.69531 9.25721 8.58594C8.36659 9.47656 7.92127 10.5312 7.92127 11.75C7.92127 12.9688 8.36659 14.0234 9.25721 14.9141C10.1478 15.8047 11.2025 16.25 12.4213 16.25C13.64 16.25 14.6947 15.8047 15.5853 14.9141C16.476 14.0234 16.9213 12.9688 16.9213 11.75C16.9213 10.5312 16.476 9.47656 15.5853 8.58594C14.6947 7.69531 13.64 7.25 12.4213 7.25ZM22.0306 16.7188C21.9681 16.7188 21.9135 16.7188 21.8666 16.7188C21.8197 16.7188 21.7806 16.7031 21.7494 16.6719C21.5619 16.5781 21.4291 16.4375 21.351 16.25C21.2728 16.0625 21.265 15.875 21.3275 15.6875C21.9525 14.25 22.2181 12.7656 22.1244 11.2344C22.0306 9.70312 21.5931 8.25 20.8119 6.875C19.9994 5.5 18.9447 4.39062 17.6478 3.54688C16.351 2.70312 14.9369 2.20312 13.4056 2.04688C11.9056 1.89062 10.4369 2.08594 8.9994 2.63281C7.5619 3.17969 6.32752 4.01562 5.29627 5.14062C3.98377 6.54688 3.16346 8.21875 2.83534 10.1562C2.50721 12.0938 2.73377 13.9375 3.51502 15.6875C3.57752 15.875 3.57752 16.0625 3.51502 16.25C3.45252 16.4375 3.32752 16.5781 3.14002 16.6719C2.92127 16.7656 2.71815 16.7734 2.53065 16.6953C2.34315 16.6172 2.20252 16.4844 2.10877 16.2969C1.23377 14.2656 0.983773 12.1328 1.35877 9.89844C1.73377 7.66406 2.67127 5.73438 4.17127 4.10938C5.35877 2.82812 6.78065 1.875 8.4369 1.25C10.0931 0.625 11.7963 0.390625 13.5463 0.546875C15.3275 0.734375 16.9681 1.3125 18.4681 2.28125C19.9681 3.25 21.1713 4.53125 22.0775 6.125C23.015 7.71875 23.5385 9.39844 23.6478 11.1641C23.7572 12.9297 23.4525 14.6406 22.7338 16.2969C22.6713 16.4219 22.5775 16.5234 22.4525 16.6016C22.3275 16.6797 22.1869 16.7188 22.0306 16.7188ZM12.4681 35C11.1869 35 9.79627 34.9219 8.29627 34.7656C6.79627 34.6094 5.34315 34.2812 3.9369 33.7812C3.3744 33.5938 2.50721 33.1719 1.33534 32.5156C0.163461 31.8594 -0.219352 30.9062 0.186898 29.6562C0.280648 29.3125 0.468148 28.9844 0.749398 28.6719C1.03065 28.3594 1.39002 28.0781 1.82752 27.8281C2.51502 27.3906 3.23377 27.0547 3.98377 26.8203C4.73377 26.5859 5.4369 26.3906 6.09315 26.2344C6.28065 26.2031 6.46815 26.2422 6.65565 26.3516C6.84315 26.4609 6.95252 26.6094 6.98377 26.7969C7.04627 27.0156 7.02284 27.2109 6.91346 27.3828C6.80409 27.5547 6.64002 27.6562 6.42127 27.6875C5.67127 27.875 4.98377 28.0703 4.35877 28.2734C3.73377 28.4766 3.15565 28.75 2.6244 29.0938C2.34315 29.25 2.11659 29.4141 1.94471 29.5859C1.77284 29.7578 1.65565 29.9375 1.59315 30.125C1.4994 30.5 1.6869 30.875 2.15565 31.25C2.6244 31.625 3.39002 32 4.45252 32.375C5.92127 32.9062 7.45252 33.2266 9.04627 33.3359C10.64 33.4453 12.0775 33.5 13.3588 33.5C15.14 33.4688 16.7181 33.3203 18.0931 33.0547C19.4681 32.7891 20.6713 32.3906 21.7025 31.8594C22.015 31.7031 22.39 31.4531 22.8275 31.1094C23.265 30.7656 23.39 30.3906 23.2025 29.9844C22.8588 29.2969 22.2025 28.7969 21.2338 28.4844C20.265 28.1719 19.4056 27.9375 18.6556 27.7812L18.4213 27.6875C18.2338 27.6562 18.0775 27.5547 17.9525 27.3828C17.8275 27.2109 17.7963 27.0156 17.8588 26.7969C17.89 26.6094 17.9994 26.4609 18.1869 26.3516C18.3744 26.2422 18.5619 26.2031 18.7494 26.2344L18.9838 26.2812C19.89 26.5 20.9135 26.8125 22.0541 27.2188C23.1947 27.625 24.015 28.3125 24.515 29.2812C24.8588 30 24.8431 30.7031 24.4681 31.3906C24.0931 32.0781 23.4056 32.6719 22.4056 33.1719C21.2494 33.7656 19.9291 34.2109 18.4447 34.5078C16.9603 34.8047 15.2806 34.9688 13.4056 35C13.2494 35 13.0931 35 12.9369 35C12.7806 35 12.6244 35 12.4681 35Z" fill="#4BAF47"/>
</svg>
