<svg width="31" height="29" viewBox="0 0 31 29" fill="none" xmlns="http://www.w3.org/2000/svg">
<path d="M30.2708 11.3223C30.2708 11.3027 30.2708 11.2783 30.2708 11.249C30.2708 11.2197 30.261 11.1953 30.2415 11.1758C30.2219 11.0977 30.1877 11.0195 30.1389 10.9414C30.0901 10.8633 30.0266 10.7949 29.9485 10.7363L25.6418 7.77734V4.55469C25.6418 4.33984 25.5686 4.15918 25.4221 4.0127C25.2756 3.86621 25.095 3.79297 24.8801 3.79297H19.9583L15.7395 0.863281C15.6028 0.785156 15.4563 0.746094 15.3 0.746094C15.1438 0.746094 14.9973 0.785156 14.8606 0.863281L10.6418 3.79297H5.71997C5.50513 3.79297 5.32446 3.86621 5.17798 4.0127C5.03149 4.15918 4.95825 4.33984 4.95825 4.55469V7.71875L0.622314 10.707C0.524658 10.7852 0.446533 10.8779 0.387939 10.9854C0.329346 11.0928 0.300049 11.2051 0.300049 11.3223C0.300049 11.3223 0.300049 11.3271 0.300049 11.3369C0.300049 11.3467 0.300049 11.3516 0.300049 11.3516L0.329346 27.9922C0.329346 28.0898 0.348877 28.1875 0.387939 28.2852C0.427002 28.3828 0.47583 28.4707 0.534424 28.5488C0.612549 28.6074 0.700439 28.6562 0.798096 28.6953C0.895752 28.7344 0.993408 28.7539 1.09106 28.7539L29.5383 28.7246C29.7532 28.7246 29.9338 28.6514 30.0803 28.5049C30.2268 28.3584 30.3 28.1777 30.3 27.9629L30.2708 11.3223ZM25.6418 9.62305L28.1028 11.3516L25.6418 13.0508V9.62305ZM15.3 2.44531L17.2629 3.79297H13.3372L15.3 2.44531ZM6.48169 5.3457H24.1184V14.1055L18.2004 18.2363L15.7688 16.3613C15.6321 16.2637 15.4758 16.21 15.3 16.2002C15.1243 16.1904 14.968 16.2441 14.8313 16.3613L12.3997 18.2363L6.48169 14.1641V5.3457ZM4.95825 9.59375V13.0801L2.40942 11.3516L4.95825 9.59375ZM1.85278 12.8164L11.1399 19.2324L1.85278 26.4395V12.8164ZM3.34692 27.2305L15.3 17.9434L27.2532 27.2012L3.34692 27.2305ZM19.4602 19.2324L28.7473 12.7578V26.4395L19.4602 19.2324ZM20.5149 8.39258H10.0852C9.88989 8.39258 9.71411 8.4707 9.55786 8.62695C9.40161 8.7832 9.32349 8.96875 9.32349 9.18359C9.32349 9.39844 9.40161 9.5791 9.55786 9.72559C9.71411 9.87207 9.88989 9.94531 10.0852 9.94531H20.5149C20.7102 9.94531 20.886 9.87207 21.0422 9.72559C21.1985 9.5791 21.2766 9.39844 21.2766 9.18359C21.2766 8.96875 21.1985 8.7832 21.0422 8.62695C20.886 8.4707 20.7102 8.39258 20.5149 8.39258ZM20.5149 12.4062H10.0852C9.88989 12.4062 9.71411 12.4795 9.55786 12.626C9.40161 12.7725 9.32349 12.9531 9.32349 13.168C9.32349 13.3828 9.40161 13.5635 9.55786 13.71C9.71411 13.8564 9.88989 13.9297 10.0852 13.9297H20.5149C20.7102 13.9297 20.886 13.8564 21.0422 13.71C21.1985 13.5635 21.2766 13.3828 21.2766 13.168C21.2766 12.9531 21.1985 12.7725 21.0422 12.626C20.886 12.4795 20.7102 12.4062 20.5149 12.4062Z" fill="#4BAF47"/>
</svg>
