<svg width="12" height="15" viewBox="0 0 12 15" fill="none" xmlns="http://www.w3.org/2000/svg">
<g clip-path="url(#clip0_1044_490)">
<path d="M6.18823 0.927734C6.83537 0.927734 7.45516 1.03255 8.04761 1.24219C8.64006 1.46094 9.16187 1.76628 9.61304 2.1582C10.0642 2.55013 10.4265 3.01953 10.7 3.56641C10.9734 4.1224 11.1101 4.73763 11.1101 5.41211C11.1101 6.05013 11.0281 6.68815 10.864 7.32617C10.7 7.97331 10.4447 8.55208 10.0984 9.0625C9.75203 9.57292 9.31453 9.99219 8.78589 10.3203C8.25724 10.6393 7.62834 10.7988 6.89917 10.7988C6.55282 10.7988 6.19279 10.7145 5.81909 10.5459C5.44539 10.3773 5.17651 10.1335 5.01245 9.81445C4.69344 11.0449 4.45874 11.904 4.30835 12.3916C4.15796 12.8792 3.74097 13.5924 3.05737 14.5312C2.98446 14.5586 2.94572 14.5723 2.94116 14.5723C2.9366 14.5723 2.91154 14.5449 2.86597 14.4902C2.83862 14.235 2.81128 13.9798 2.78394 13.7246C2.75659 13.4694 2.74292 13.2142 2.74292 12.959C2.74292 12.5397 2.78394 12.0794 2.86597 11.5781C2.948 11.0859 3.05054 10.5846 3.17358 10.0742C3.29663 9.5638 3.42196 9.06706 3.54956 8.58398C3.68628 8.0918 3.80021 7.64062 3.89136 7.23047C3.7911 7.02083 3.72274 6.79525 3.68628 6.55371C3.64982 6.31217 3.63159 6.07747 3.63159 5.84961C3.63159 5.30273 3.76375 4.87435 4.02808 4.56445C4.2924 4.25456 4.58634 4.06543 4.90991 3.99707C5.23348 3.92871 5.52743 3.99023 5.79175 4.18164C6.06519 4.37305 6.2019 4.69206 6.2019 5.13867C6.2019 5.67643 6.08114 6.19824 5.8396 6.7041C5.59806 7.20996 5.47729 7.72266 5.47729 8.24219C5.47729 8.59766 5.60262 8.88704 5.85327 9.11035C6.10392 9.33366 6.39787 9.44531 6.73511 9.44531C7.20907 9.44531 7.60555 9.29492 7.92456 8.99414C8.23446 8.69336 8.48511 8.32878 8.67651 7.90039C8.86792 7.47201 9.00464 7.01628 9.08667 6.5332C9.1687 6.05013 9.20972 5.6263 9.20972 5.26172C9.20972 4.77865 9.12769 4.35026 8.96362 3.97656C8.79956 3.60286 8.57397 3.28841 8.28687 3.0332C7.99976 2.778 7.65568 2.58659 7.25464 2.45898C6.86271 2.33138 6.43433 2.26758 5.96948 2.26758C5.42261 2.26758 4.91675 2.35872 4.4519 2.54102C3.98706 2.72331 3.58146 2.98079 3.23511 3.31348C2.88875 3.64616 2.61987 4.04492 2.42847 4.50977C2.22795 4.9655 2.12769 5.47135 2.12769 6.02734C2.12769 6.55599 2.23478 6.96387 2.44897 7.25098C2.66317 7.53809 2.77026 7.74544 2.77026 7.87305C2.77026 7.98242 2.73381 8.17155 2.66089 8.44043C2.58797 8.70931 2.48315 8.84375 2.34644 8.84375C2.01831 8.84375 1.64689 8.58171 1.23218 8.05762C0.817464 7.53353 0.610107 6.78841 0.610107 5.82227C0.610107 5.06575 0.769613 4.38672 1.08862 3.78516C1.40763 3.17448 1.8269 2.6595 2.34644 2.24023C2.86597 1.82096 3.46297 1.4974 4.13745 1.26953C4.80282 1.04167 5.48641 0.927734 6.18823 0.927734Z" fill="#1F1E17"/>
</g>
<defs>
<clipPath id="clip0_1044_490">
<rect width="10.5" height="14" fill="white" transform="matrix(1 0 0 -1 0.610107 14.75)"/>
</clipPath>
</defs>
</svg>
