<svg width="17" height="16" viewBox="0 0 17 16" fill="none" xmlns="http://www.w3.org/2000/svg">
<path d="M16.0917 6.45071C16.0397 6.28405 15.9485 6.14863 15.8183 6.04446C15.6881 5.9403 15.5397 5.8778 15.373 5.85696L10.748 5.45071L8.91987 1.16946C8.85737 1.01321 8.7532 0.888212 8.60737 0.794462C8.46153 0.700712 8.30528 0.653837 8.13862 0.653837C7.97195 0.653837 7.8157 0.700712 7.66987 0.794462C7.52403 0.888212 7.41987 1.01321 7.35737 1.16946L5.52924 5.45071L0.904243 5.85696C0.737576 5.8778 0.589138 5.9403 0.45893 6.04446C0.328722 6.14863 0.237576 6.28405 0.185493 6.45071C0.133409 6.60696 0.128201 6.76842 0.169868 6.93509C0.211534 7.10175 0.300076 7.24238 0.435493 7.35696L3.91987 10.4195L2.88862 14.9507C2.85737 15.1174 2.87039 15.2788 2.92768 15.4351C2.98497 15.5913 3.08133 15.7215 3.21674 15.8257C3.28966 15.8778 3.37039 15.9169 3.45893 15.9429C3.54747 15.9689 3.63341 15.982 3.71674 15.982C3.78966 15.982 3.86518 15.9715 3.94331 15.9507C4.02143 15.9299 4.09174 15.9038 4.15424 15.8726L8.13862 13.482L12.123 15.8726C12.2688 15.9559 12.4251 15.995 12.5917 15.9898C12.7584 15.9846 12.9147 15.9299 13.0605 15.8257C13.1959 15.7215 13.2923 15.5913 13.3496 15.4351C13.4068 15.2788 13.4199 15.1174 13.3886 14.9507L12.3574 10.4195L15.8417 7.35696C15.9772 7.24238 16.0657 7.10175 16.1074 6.93509C16.149 6.76842 16.1438 6.60696 16.0917 6.45071Z" fill="#EEC044"/>
</svg>
