<svg width="15" height="12" viewBox="0 0 15 12" fill="none" xmlns="http://www.w3.org/2000/svg">
<path d="M13.4246 2.89258C13.4246 2.95638 13.4246 3.02018 13.4246 3.08398C13.4246 3.14779 13.4246 3.21159 13.4246 3.27539C13.4246 4.22331 13.2468 5.18034 12.8914 6.14648C12.5359 7.11263 12.0141 7.98763 11.3259 8.77148C10.6378 9.55534 9.78328 10.1979 8.76245 10.6992C7.75073 11.1914 6.58407 11.4375 5.26245 11.4375C4.86141 11.4375 4.46493 11.4102 4.073 11.3555C3.68107 11.2917 3.30054 11.2051 2.9314 11.0957C2.56226 10.9863 2.20451 10.8542 1.85815 10.6992C1.5118 10.5352 1.17912 10.3529 0.860107 10.1523C0.978597 10.1615 1.09481 10.1683 1.20874 10.1729C1.32267 10.1774 1.43888 10.1797 1.55737 10.1797C2.22274 10.1797 2.85848 10.0726 3.4646 9.8584C4.07072 9.64421 4.61987 9.3457 5.11206 8.96289C4.48315 8.94466 3.92489 8.7487 3.43726 8.375C2.94963 8.0013 2.61466 7.5319 2.43237 6.9668C2.52352 6.97591 2.61239 6.98503 2.69897 6.99414C2.78556 7.00326 2.87899 7.00781 2.97925 7.00781C3.10685 7.00781 3.23446 7.00098 3.36206 6.9873C3.48966 6.97363 3.61271 6.94857 3.7312 6.91211C3.07495 6.77539 2.52808 6.44727 2.09058 5.92773C1.65308 5.4082 1.43433 4.79753 1.43433 4.0957V4.06836C1.62573 4.16862 1.83081 4.25065 2.04956 4.31445C2.26831 4.37826 2.49162 4.41471 2.71948 4.42383C2.33667 4.16862 2.02905 3.83138 1.79663 3.41211C1.56421 2.99284 1.448 2.53255 1.448 2.03125C1.448 1.76693 1.48218 1.514 1.55054 1.27246C1.6189 1.03092 1.71232 0.805339 1.83081 0.595703C2.18628 1.02409 2.58276 1.41602 3.02026 1.77148C3.45776 2.12695 3.92716 2.43457 4.42847 2.69434C4.92977 2.9541 5.46297 3.16146 6.02808 3.31641C6.58407 3.47135 7.15828 3.5625 7.75073 3.58984C7.7325 3.48047 7.71655 3.37109 7.70288 3.26172C7.68921 3.15234 7.68237 3.04297 7.68237 2.93359C7.68237 2.54167 7.75529 2.16797 7.90112 1.8125C8.05607 1.46615 8.26343 1.16309 8.52319 0.90332C8.78296 0.643555 9.08602 0.440755 9.43237 0.294922C9.77873 0.139974 10.1524 0.0625 10.5535 0.0625C10.9636 0.0625 11.3487 0.144531 11.7087 0.308594C12.0688 0.472656 12.3809 0.691406 12.6453 0.964844C12.9734 0.910156 13.2901 0.823567 13.5955 0.705078C13.9008 0.586589 14.1902 0.445312 14.4636 0.28125C14.3634 0.609375 14.2039 0.910156 13.9851 1.18359C13.7664 1.45703 13.5066 1.68034 13.2058 1.85352C13.4975 1.82617 13.7823 1.77376 14.0603 1.69629C14.3383 1.61882 14.6049 1.52539 14.8601 1.41602C14.6687 1.69857 14.45 1.96517 14.2039 2.21582C13.9578 2.46647 13.698 2.69206 13.4246 2.89258Z" fill="#1F1E17"/>
</svg>
