<svg width="14" height="13" viewBox="0 0 14 13" fill="none" xmlns="http://www.w3.org/2000/svg">
<path d="M7.20491 0.345058C8.0764 0.345058 8.89289 0.510049 9.65438 0.840029C10.4159 1.17001 11.0822 1.62056 11.6533 2.19168C12.2244 2.7628 12.675 3.4291 13.0049 4.19059C13.3349 4.95209 13.4999 5.76857 13.4999 6.64006C13.4999 7.51154 13.3349 8.32803 13.0049 9.08952C12.675 9.85102 12.2244 10.5173 11.6533 11.0884C11.0822 11.6596 10.4159 12.1101 9.65438 12.4401C8.89289 12.7701 8.0764 12.9351 7.20491 12.9351C6.33343 12.9351 5.51694 12.7701 4.75545 12.4401C3.99395 12.1101 3.32765 11.6596 2.75653 11.0884C2.18541 10.5173 1.73486 9.85102 1.40488 9.08952C1.0749 8.32803 0.909912 7.51154 0.909912 6.64006C0.909912 5.76857 1.0749 4.95209 1.40488 4.19059C1.73486 3.4291 2.18541 2.7628 2.75653 2.19168C3.32765 1.62056 3.99395 1.17001 4.75545 0.840029C5.51694 0.510049 6.33343 0.345058 7.20491 0.345058ZM7.20491 2.78183C6.58726 2.78183 6.06056 2.9997 5.62482 3.43545C5.18907 3.87119 4.9712 4.39789 4.9712 5.01554C4.9712 5.6332 5.18907 6.1599 5.62482 6.59564C6.06056 7.03138 6.58726 7.24925 7.20491 7.24925C7.82257 7.24925 8.34927 7.03138 8.78501 6.59564C9.22075 6.1599 9.43862 5.6332 9.43862 5.01554C9.43862 4.39789 9.22075 3.87119 8.78501 3.43545C8.34927 2.9997 7.82257 2.78183 7.20491 2.78183ZM7.20491 11.5136C7.5772 11.5136 7.93679 11.4713 8.28369 11.3867C8.63906 11.3105 8.97327 11.1963 9.28632 11.044C9.59938 10.8917 9.89552 10.7098 10.1747 10.4983C10.4539 10.2868 10.7035 10.0499 10.9235 9.78756C10.6866 9.33912 10.3461 8.97319 9.90186 8.68974C9.45766 8.4063 8.9648 8.26457 8.4233 8.26457C8.38946 8.26457 8.35773 8.26669 8.32811 8.27092C8.2985 8.27515 8.271 8.2815 8.24562 8.28996C8.0764 8.34072 7.90506 8.38303 7.73161 8.41687C7.55816 8.45072 7.38259 8.46764 7.20491 8.46764C7.02723 8.46764 6.85166 8.45072 6.67821 8.41687C6.50476 8.38303 6.33343 8.34072 6.16421 8.28996C6.13882 8.2815 6.11133 8.27515 6.08171 8.27092C6.0521 8.26669 6.02037 8.26457 5.98653 8.26457C5.44502 8.26457 4.95217 8.4063 4.50796 8.68974C4.06376 8.97319 3.7232 9.33912 3.48629 9.78756C3.70628 10.0499 3.95588 10.2868 4.23509 10.4983C4.51431 10.7098 4.81044 10.8917 5.1235 11.044C5.43656 11.1963 5.77077 11.3105 6.12613 11.3867C6.47303 11.4713 6.83263 11.5136 7.20491 11.5136Z" fill="#EEC044"/>
</svg>
